<svg viewBox="0 0 265 207" fill="none" xmlns="http://www.w3.org/2000/svg">
    <path
        d="M5.63225 204.844C3.1567 200.979 1.9305 197.159 0.819976 189.589C0.357258 186.368 0.403529 175.369 0.91252 173.138C1.88423 168.743 4.75308 162.208 7.43685 158.251C10.2132 154.132 14.0769 151.762 28.5137 145.412C32.5393 143.64 35.547 142.651 42.3721 140.925C50.3308 138.9 52.9683 137.911 59.5158 134.413C63.4258 132.32 69.418 129.881 70.621 129.881C71.0375 129.881 71.5002 129.72 71.6622 129.535C71.801 129.351 72.6801 128.845 73.5824 128.408C74.5079 127.994 75.4796 127.396 75.7572 127.073C76.4744 126.314 77.6544 123.622 78.95 119.757L80.0836 116.42L79.2276 115.109C77.5618 112.509 77.3999 111.404 77.6544 104.11C77.7238 101.971 77.6775 101.464 77.1222 99.7847C76.7752 98.7493 75.6878 96.2644 74.693 94.2626C71.7316 88.2112 71.1069 85.8413 70.6442 78.8005C70.3434 74.2447 70.2971 74.0146 69.5105 72.0588C68.4231 69.4128 67.1969 65.6853 66.4334 62.5561L65.8088 60.0481L63.8885 58.0693C61.089 55.2162 60.1405 52.7542 59.2613 46.3577C58.8217 43.1134 58.9605 41.1577 59.9785 35.9346C61.4129 28.4567 62.8011 25.9487 67.382 22.5433C70.2509 20.4265 72.2174 18.4477 74.693 15.1574C77.9783 10.8087 79.5284 9.52022 86.1221 5.72373C94.0577 1.14493 97.8289 0.293593 110.299 0.270584C119.53 0.247575 120.803 0.500674 126.841 3.49185C128.623 4.3892 131.723 5.70072 133.736 6.39099C137.877 7.84056 139.983 8.92199 141.07 10.1415C141.741 10.9238 141.81 11.1078 141.718 12.2123L141.602 13.4318L143.013 13.5468C143.8 13.5928 147.293 13.8229 150.787 14.007C154.28 14.2141 157.89 14.4672 158.769 14.6052C159.671 14.7203 161.753 14.9274 163.396 15.0424C179.614 16.3079 184.612 17.0442 187.226 18.5168C190.118 20.1734 191.136 22.0372 193.01 29.216C194.953 36.6709 195.671 41.2497 195.833 47.071C195.948 51.5578 195.925 51.9029 195.439 53.3985C194.653 55.8144 193.635 56.6428 188.707 58.8746C186.486 59.887 184.172 60.9455 183.524 61.2216C173.298 65.8694 172.512 66.1455 169.041 66.1455C165.154 66.1455 164.321 66.7207 163.743 69.7579C163.558 70.6553 163.234 71.4836 162.91 71.8748C162.447 72.427 162.401 72.6341 162.586 73.3013C162.887 74.3137 162.887 77.1438 162.586 78.9385C162.471 79.6978 161.823 81.6306 161.175 83.1952C160.527 84.7598 159.648 87.1988 159.232 88.5793C158.815 89.9829 158.26 91.6856 157.959 92.3758C157.473 93.5953 157.473 93.7564 157.705 96.4024C157.867 97.921 157.982 100.613 158.005 102.385C158.052 105.284 158.005 105.721 157.52 106.803C157.011 107.93 155.923 109.149 154.674 109.955C154.072 110.323 151.25 111.105 149.607 111.335C147.178 111.68 141.671 115.017 139.08 117.732C136.096 120.861 135.54 122.794 135.286 130.916C135.124 135.541 134.985 137.036 134.615 138.509C134.36 139.521 134.06 140.833 133.99 141.454L133.828 142.536H134.916C136.327 142.536 137.97 143.364 142.042 146.125C143.8 147.321 145.304 148.288 145.373 148.288C145.512 148.288 146.784 147.529 155.53 142.144C159.625 139.636 160.273 139.314 161.175 139.314C162.193 139.314 162.262 139.268 165.455 136.139C167.26 134.367 168.972 132.711 169.296 132.435C170.036 131.79 172.118 130.801 174.501 129.996C178.319 128.684 178.943 128.247 182.414 124.519C183.362 123.507 184.103 122.909 184.542 122.84C185.098 122.725 185.259 122.541 185.468 121.689C185.607 121.16 186.116 119.941 186.601 119.02C187.55 117.226 192.108 111.105 194.63 108.252C196.018 106.664 196.781 105.606 199.118 102.04C200.529 99.8538 201.802 98.2892 203.653 96.5175C204.624 95.5741 205.92 94.1705 206.498 93.4112C210.616 88.0501 211.912 86.7156 214.388 85.312C215.868 84.4607 219.917 81.7687 222.277 80.066C223.364 79.2837 225.354 78.0412 226.719 77.3049C228.107 76.5686 229.819 75.4642 230.536 74.8659C233.683 72.2659 235.256 71.5526 236.922 71.9898C237.662 72.1739 238.472 73.7615 238.472 75.027V75.9244L244.187 75.8093C250.549 75.6713 250.387 75.7173 252.724 73.9456C254.205 72.8181 255.084 72.7491 255.917 73.7615C256.287 74.1757 256.518 74.7509 256.518 75.1651C256.518 75.7863 256.588 75.8553 257.05 75.7173C257.328 75.6482 258.971 75.5102 260.706 75.4412L263.875 75.2801L264.176 75.8323C264.361 76.1775 264.477 77.1668 264.5 78.3633C264.5 80.2501 264.454 80.4111 263.737 81.4695C262.048 83.9085 260.035 84.8059 255.107 85.3581C252.03 85.7032 251.544 85.8643 248.768 87.4979C246.778 88.6714 245.806 89.4537 243.446 91.7086C242.313 92.79 240.809 94.0785 240.115 94.5617C239.421 95.0449 238.403 96.0803 237.847 96.8396C237.269 97.6219 235.603 99.4856 234.123 101.004C231.67 103.512 231.161 104.179 228.871 108.022C225.817 113.107 225.192 114.741 225.331 117.226C225.47 119.25 226.279 121.252 227.274 122.034C227.83 122.472 228.13 122.541 229.102 122.426C230.467 122.288 233.012 121.068 236.251 119.043C240.531 116.351 243.816 115.477 248.652 115.684C252.77 115.845 255.199 116.903 256.611 119.158C257.189 120.079 257.305 120.539 257.397 122.15C257.467 123.346 257.397 124.243 257.235 124.565C256.958 125.072 255.847 125.624 251.775 127.327C250.503 127.856 249.022 128.5 248.467 128.753C245.899 129.927 242.822 131.008 241.133 131.353C238.333 131.928 237.153 132.619 234.215 135.403C231.439 138.003 224.567 143.088 221.699 144.629C219.848 145.619 214.434 147.828 211.866 148.633C209.529 149.369 206.73 149.829 203.56 150.014C200.02 150.221 198.285 150.75 195.208 152.614C191.02 155.099 181.882 161.219 180.1 162.691L179.429 163.244H181.396C184.403 163.244 186.301 163.98 192.177 167.454C194.907 169.088 196.457 170.4 199.65 173.828C205.272 179.879 209.298 185.724 212.745 192.741C214.943 197.228 216.262 200.725 216.262 202.129V203.302L215.406 203.233L214.573 203.164L213.254 199.943C209.437 190.555 205.133 183.722 198.239 176.129C194.907 172.447 193.588 171.297 190.789 169.571C186.601 166.994 182.83 165.315 181.211 165.315C180.262 165.315 178.134 165.752 177.995 165.982C177.925 166.051 178.041 166.81 178.203 167.615C178.596 169.364 178.643 171.941 178.319 172.769C178.203 173.115 177.856 173.46 177.578 173.598C171.679 175.991 168.926 177.486 164.969 180.431C163.859 181.26 162.494 182.157 161.962 182.41C161.129 182.824 160.99 182.985 160.874 183.814C160.458 186.506 157.681 189.428 151.828 193.271C146.923 196.492 145.743 197.343 143.268 199.391C140.746 201.462 138.479 202.957 137.044 203.441C136.281 203.694 135.124 203.832 133.782 203.832C131.237 203.855 129.803 203.256 128.646 201.715C127.906 200.748 127.882 200.633 127.882 198.563C127.882 196.515 127.929 196.354 128.831 194.559C129.525 193.179 130.289 192.12 131.723 190.624C135.494 186.713 140.214 184.343 147.132 182.939C149.792 182.41 151.25 182.18 155.646 181.651C158.699 181.306 158.584 181.536 157.196 178.2C155.969 175.323 151.62 166.718 150.81 165.568C150.509 165.153 149.908 164.808 149.006 164.532C147.062 163.934 143.013 161.886 141.186 160.598C138.965 159.01 137.044 157.192 135.818 155.49C135.263 154.684 134.731 154.04 134.638 154.04C134.569 154.04 133.782 154.638 132.88 155.375C130.89 157.008 129.271 158.067 125.8 160.137C124.343 160.989 121.173 163.014 118.744 164.624C111.479 169.433 108.379 171.159 104.052 172.746C98.6155 174.748 94.5667 176.658 91.374 178.729C88.5051 180.57 86.955 181.168 85.1273 181.191C84.3406 181.191 83.2995 181.03 82.8368 180.846C81.68 180.362 78.1171 180.593 77.0528 181.237C76.1274 181.789 75.1094 183.031 74.4153 184.481C73.9295 185.47 73.8138 185.562 73.0734 185.562C72.6339 185.562 72.1017 185.401 71.8935 185.217C71.5233 184.895 71.4308 184.918 70.8293 185.562C69.9964 186.414 69.8575 186.874 69.8344 188.899C69.765 193.179 68.8627 196.929 66.9193 200.933C65.6699 203.487 65.6699 203.51 64.8371 203.51H64.0273V201.232C64.0273 198.954 64.5132 195.917 65.4617 192.465C65.7162 191.522 65.9707 189.98 66.0401 189.083C66.1789 187.426 66.1789 187.403 65.6237 187.403C64.6751 187.426 63.1944 188.232 61.76 189.543C60.5569 190.648 58.4053 191.775 57.5261 191.775C57.3873 191.775 56.5313 192.166 55.6058 192.626C54.2639 193.34 53.1997 194.237 49.7524 197.642C45.079 202.244 43.043 203.717 41.0765 203.924L39.9659 204.039V203.256C39.9659 202.658 40.2667 202.152 41.1227 201.094C41.7705 200.334 42.2795 199.644 42.2795 199.552C42.2795 199.46 41.7011 198.931 41.0071 198.379C37.7218 195.825 32.0766 193.846 28.0509 193.846H26.3158V192.902C26.3158 192.258 26.5008 191.729 26.9404 191.131C30.7347 186 36.4493 182.065 42.3258 180.524C45.5186 179.695 47.6471 179.511 51.9735 179.649C55.0043 179.741 56.485 179.902 57.7806 180.247C58.7292 180.501 59.5389 180.731 59.5852 180.731C59.7934 180.731 58.868 179.327 58.521 179.143C57.8731 178.798 53.7318 177.97 50.2846 177.486C42.4415 176.405 35.6395 177.256 28.2823 180.224C26.9404 180.777 23.1924 182.939 21.7117 184.021C18.7966 186.161 14.7015 190.878 12.8044 194.237C10.7453 197.941 9.17204 202.313 8.825 205.419L8.66305 206.731H7.76075C6.90472 206.731 6.83531 206.685 5.63225 204.844ZM7.57566 200.518C8.22347 197.711 10.19 193.547 12.3879 190.256C17.8943 182.111 25.2978 177.486 36.0328 175.531C37.7218 175.208 39.5495 175.116 43.9453 175.116L49.6368 175.093L48.5725 174.679C46.6985 173.943 42.025 172.654 39.5264 172.194C32.7013 170.952 24.8351 171.159 18.4264 172.815C17.7092 172.977 16.7375 173.138 16.2748 173.138C15.465 173.138 15.4419 173.115 15.4419 172.309C15.4419 170.653 17.4778 168.973 20.4161 168.214C23.8633 167.339 33.0252 167.04 39.0405 167.615C42.5109 167.938 47.9247 168.973 50.4928 169.824C56.2768 171.711 58.9837 174.081 62.1533 180.109C63.0093 181.743 63.3332 182.594 63.3332 183.285V184.228L62.4772 184.113C61.9913 184.044 60.5569 183.63 59.2844 183.17C55.9991 182.042 53.8475 181.651 50.6547 181.651C43.6214 181.651 36.8426 184.55 31.5445 189.796L29.6936 191.637L32.4699 192.143C33.9737 192.442 35.6858 192.81 36.2642 192.994C39.0174 193.892 41.7011 195.41 43.9222 197.32L45.2178 198.425L48.2023 195.433C51.6033 192.028 53.4773 190.671 56.1842 189.681C58.5904 188.807 58.706 188.738 60.1405 187.472C62.0145 185.816 63.2869 185.332 65.7625 185.332H67.8447L68.3074 184.504C68.8396 183.515 70.1352 182.801 71.4077 182.801C72.2174 182.801 72.3794 182.709 72.8421 181.95C73.675 180.547 75.1788 179.12 76.058 178.89C76.4976 178.775 78.3253 178.614 80.1068 178.545C82.6517 178.43 83.554 178.476 84.2712 178.729C85.1041 179.051 85.2892 179.028 86.284 178.66C86.8856 178.43 88.2506 177.67 89.2917 176.98C92.2994 175.024 95.2145 173.575 100.466 171.504C105.07 169.663 105.279 169.571 104.307 169.502C102.919 169.41 91.9061 164.923 86.9087 162.415C80.2918 159.125 71.1069 152.475 64.8602 146.447C62.2921 143.962 58.012 138.992 58.012 138.463C58.012 138.302 57.9657 138.164 57.9194 138.164C57.8731 138.164 56.8552 138.624 55.6752 139.176C52.5056 140.672 50.5622 141.27 41.9094 143.456C34.5753 145.32 30.6653 146.838 20.4161 151.854C12.0872 155.95 10.2132 157.768 6.21064 165.729C3.29552 171.504 2.5089 174.794 2.48576 180.892C2.48576 184.734 3.04102 190.486 3.66569 193.109C4.72995 197.504 6.74277 202.773 7.11294 202.083C7.20549 201.922 7.41371 201.209 7.57566 200.518ZM136.697 200.864C137.391 200.518 139.404 199.069 141.186 197.642C142.967 196.239 146.646 193.593 149.376 191.775C154.535 188.37 156.849 186.368 157.936 184.435L158.468 183.446L157.82 183.584C157.45 183.653 156.062 183.814 154.72 183.952C147.779 184.688 141.486 186.575 137.6 189.129C134.916 190.878 131.862 194.053 130.821 196.17C130.358 197.113 129.965 198.148 129.965 198.448C129.965 199.253 130.821 200.449 131.885 201.094C132.695 201.6 133.065 201.669 134.152 201.6C134.916 201.531 135.934 201.232 136.697 200.864ZM161.615 179.626C162.147 179.212 162.147 179.212 161.221 179.304C160.55 179.373 160.342 179.488 160.435 179.718C160.597 180.155 160.967 180.109 161.615 179.626ZM167.491 172.769C173.437 169.111 174.848 168.076 174.848 167.362C174.848 166.741 174.663 166.718 172.65 167.063C168.902 167.661 159.093 167.362 156.131 166.557C155.507 166.373 155.46 166.281 157.288 169.341C158.838 171.964 159.463 173.046 160.435 174.794C160.921 175.669 161.383 176.359 161.476 176.359C161.568 176.359 164.275 174.748 167.491 172.769ZM54.0789 174.15C54.0789 173.851 49.6368 171.964 47.6008 171.412C44.5006 170.538 39.7346 169.686 37.421 169.594C36.3336 169.548 35.8246 169.548 36.2642 169.594C41.84 170.192 47.6933 171.619 52.1123 173.46C53.1303 173.897 53.9863 174.265 54.0326 174.265C54.0557 174.288 54.0789 174.219 54.0789 174.15ZM174.339 172.24C175.843 171.642 176.26 171.366 176.375 170.906C176.468 170.607 176.491 170.33 176.445 170.284C176.398 170.238 175.357 170.883 174.154 171.688C172.951 172.516 172.072 173.138 172.211 173.092C172.327 173.069 173.298 172.677 174.339 172.24ZM34.3671 169.295C33.8812 169.249 33.0946 169.249 32.6319 169.295C32.146 169.341 32.5393 169.387 33.4879 169.387C34.4365 169.387 34.8298 169.341 34.3671 169.295ZM107.685 166.005C108.633 165.614 114.649 162.576 116.823 161.38C121.127 158.987 125.106 156.387 129.895 152.867L132.001 151.302L131.977 145.481C131.954 140.212 132.001 139.452 132.486 137.359C132.903 135.541 133.042 133.907 133.227 129.466C133.366 125.187 133.528 123.415 133.898 121.873C134.893 117.778 137.276 114.994 142.736 111.634C145.234 110.093 146.16 109.725 149.214 109.08C152.175 108.459 153.332 107.976 154.419 106.826C156.131 105.054 156.363 103.558 155.761 98.2431C155.576 96.6095 155.414 94.7228 155.414 94.0555V92.859L150.718 92.9971C141.394 93.2732 136.882 91.8466 131.492 86.9227C130.335 85.8873 129.201 85.0129 128.993 85.0129C128.669 85.0129 128.576 84.8289 128.576 84.1616V83.2873L134.592 80.8713C143.731 77.1899 143.152 77.3739 146.507 77.1208C148.173 76.9828 150.417 76.8677 151.527 76.8677C153.448 76.8447 153.54 76.8217 153.401 76.3845C153.309 76.1314 153.124 75.4872 152.985 74.958C152.8 74.1987 152.661 74.0376 152.406 74.1987C151.944 74.4978 150.278 74.4978 149.538 74.1987C149.214 74.0836 148.45 73.5084 147.872 72.9332C146.9 71.9438 146.808 71.7827 146.9 70.8854C146.97 69.965 146.946 69.896 146.507 70.1031C146.137 70.2641 146.044 70.5402 146.044 71.4606C146.044 72.2199 145.928 72.6801 145.697 72.8181C145.188 73.1403 142.551 73.3473 141.255 73.1863C139.774 72.9792 138.988 72.45 138.294 71.1615L137.761 70.1491L136.558 71.4376C135.17 72.8872 134.546 74.0146 134.129 75.8093C133.69 77.7191 133.342 78.2253 131.654 79.3987C129.433 80.9403 128.877 81.5156 128.438 82.643C127.882 84.0696 128.114 84.9209 129.687 87.2218C131.33 89.6378 132.787 92.4449 134.199 95.9422C135.61 99.4626 135.864 100.59 135.864 103.65C135.864 105.859 135.795 106.434 135.448 106.964C135.031 107.585 134.962 107.608 133.481 107.516C132.394 107.447 131.168 107.125 129.386 106.434C126.564 105.376 122.006 104.156 117.934 103.42C112.728 102.477 110.045 101.372 103.914 97.7599C99.5178 95.1369 97.4818 92.9741 95.978 89.3156C94.96 86.8306 93.9652 85.266 92.9472 84.5528C92.2763 84.0926 91.7904 84.0926 91.7904 84.5758C91.7904 85.4041 97.852 99.6697 99.6103 102.96C101.554 106.618 102.202 107.516 105.209 110.461C112.312 117.433 114.186 122.541 114.695 136.369C114.834 139.959 115.042 144.445 115.158 146.332C115.528 151.716 115.458 155.214 115.019 155.858C114.672 156.341 114.51 156.387 112.844 156.295C111.086 156.226 110.924 156.157 106.343 153.879C98.1759 149.806 91.2814 146.033 84.5257 141.891C80.1068 139.199 75.7109 135.932 73.5362 133.723L72.5182 132.665L71.801 133.424C71.2457 133.999 69.927 134.62 65.9244 136.208C63.1019 137.336 60.8577 138.302 60.9734 138.371C61.0659 138.44 61.8294 139.337 62.6854 140.35C65.2304 143.41 68.8396 146.769 74.2996 151.164C76.7058 153.097 82.3047 156.916 85.428 158.757C87.9498 160.23 94.4973 163.244 98.9625 164.992C100.05 165.407 101.762 166.097 102.78 166.534L104.631 167.316L105.903 166.764C106.597 166.442 107.407 166.097 107.685 166.005ZM168.023 165.315C170.337 165.107 173.391 164.693 174.085 164.509C174.247 164.44 173.183 161.909 171.239 157.791C167.422 149.668 166.149 147.298 164.53 145.205C162.355 142.374 162.401 142.398 161.823 142.766C160.412 143.64 158.144 144.859 154.489 146.677C151.088 148.357 146.322 150.796 145.628 151.21C145.535 151.256 145.766 151.693 146.183 152.13C146.877 152.936 150.509 158.343 152.73 161.909C153.957 163.888 153.772 163.773 157.381 164.509C159.232 164.9 163.465 165.453 164.784 165.522C165.178 165.522 166.635 165.43 168.023 165.315ZM177.393 161.518C182.437 157.653 192.432 151.072 195.555 149.53C197.429 148.61 199.789 148.058 201.871 148.058C203.676 148.058 207.262 147.506 209.552 146.861C213.601 145.757 219.269 143.249 222.277 141.27C227.552 137.75 229.403 136.392 231.069 134.805C235.626 130.456 235.765 130.387 239.536 129.42C241.503 128.914 244.164 127.925 248.559 126.061C251.983 124.588 254.922 123.3 255.084 123.162C255.5 122.794 255.431 122.081 254.806 121.045C253.58 118.974 251.474 117.939 248.05 117.755C246.223 117.64 245.644 117.709 243.816 118.238C241.364 118.928 240.161 119.503 237.431 121.275C233.544 123.783 230.536 124.773 227.483 124.542C225.817 124.404 225.1 123.99 224.429 122.817C223.434 121.022 223.156 119.48 223.249 116.121C223.364 112.21 223.526 111.749 227.043 106.02C229.287 102.385 229.866 101.625 232.11 99.3706C233.498 97.99 234.955 96.3794 235.326 95.8042C235.719 95.252 236.367 94.4236 236.806 93.9635L237.593 93.1121L236.76 93.0201C235.997 92.928 235.881 92.9971 235.071 94.1935C234.585 94.8838 233.683 95.8502 233.058 96.3564C231.763 97.3688 228.986 98.8184 228.339 98.8184C227.668 98.8184 226.488 100.567 226.326 101.787C226.071 103.673 225.979 103.903 224.891 105.054C223.364 106.664 219.2 108.712 217.095 108.873L215.568 109.011V108.137C215.568 107.447 215.776 107.033 216.678 105.974C218.76 103.558 220.426 100.682 220.426 99.4626C220.426 98.7493 219.917 97.4378 219.639 97.4378C219.501 97.4378 218.483 98.3812 217.349 99.5086C215.706 101.165 215.151 101.579 214.619 101.579C214.017 101.579 213.948 101.487 213.948 100.889C213.948 100.498 214.179 99.8077 214.48 99.3246C214.758 98.8644 215.151 98.1741 215.336 97.783C215.521 97.4148 216.539 96.2874 217.557 95.252C218.598 94.2396 219.616 93.1351 219.825 92.813C220.195 92.2378 220.195 92.1918 219.732 92.0767C219.316 91.9617 219.246 91.8006 219.316 91.0873C219.385 90.282 219.454 90.213 220.472 89.9139C221.375 89.6608 221.791 89.3386 223.064 87.797C223.896 86.8076 224.961 85.7032 225.423 85.3581L226.279 84.7138L225.423 84.2766C224.706 83.9085 224.591 83.7244 224.591 83.0802C224.591 82.574 224.729 82.2518 224.961 82.1598C225.655 81.9067 227.344 82.0218 228.13 82.3899L228.917 82.758L230.86 81.5616C233.799 79.7439 234.608 79.0076 235.557 77.2129C236.297 75.8093 236.367 75.5332 236.135 75.027C235.973 74.7049 235.719 74.4288 235.557 74.4288C235.395 74.4288 234.446 75.119 233.452 75.9474C231.74 77.3739 231.022 77.8341 226.788 80.2501C225.77 80.8253 224.128 81.9067 223.156 82.643C222.184 83.3793 219.778 84.9899 217.812 86.2324C213.902 88.6944 212.467 89.9829 209.737 93.5263C208.812 94.7228 207.123 96.6555 205.943 97.783C203.814 99.8768 201.455 102.868 200.182 105.031C199.396 106.365 197.406 108.988 195.324 111.427C194.56 112.325 193.635 113.452 193.288 113.935C192.917 114.418 192.085 115.523 191.437 116.374C188.337 120.447 186.902 123.576 187.203 125.693C187.388 127.073 188.267 128.891 189.169 129.812C190.095 130.732 192.848 131.813 195.277 132.204C198.169 132.688 201.732 131.905 203.005 130.525C203.814 129.65 204.694 127.672 206.776 122.081C209.228 115.408 209.367 115.132 210.339 114.142C212.097 112.417 214.665 111.749 218.575 112.026C221.722 112.256 221.814 112.302 221.814 113.222C221.814 114.165 221.56 114.326 218.737 115.063C217.557 115.385 216.285 115.891 215.868 116.213C213.393 118.077 210.385 125.923 208.997 134.137C207.701 141.73 205.874 145.343 202.449 146.999C200.668 147.874 198.216 148.104 197.498 147.459C196.874 146.884 195.902 144.998 195.902 144.33C195.902 143.824 195.833 143.801 194.63 143.87C191.645 144.054 188.36 142.305 184.311 138.348C181.28 135.38 180.632 134.229 180.632 131.767C180.632 130.847 180.563 130.111 180.47 130.157C180.355 130.203 179.707 130.502 179.013 130.847C178.319 131.169 176.907 131.744 175.889 132.089C172.049 133.401 171.748 133.585 167.977 137.289L164.437 140.764L165.016 141.477C166.681 143.502 168.255 145.895 169.388 148.173C171.216 151.854 175.681 161.219 175.866 161.817C176.075 162.484 176.167 162.461 177.393 161.518ZM147.733 160.897C147.409 160.483 146.599 159.355 145.928 158.412C142.898 154.178 140.677 151.739 139.844 151.739C139.057 151.739 137.137 152.429 137.137 152.706C137.137 153.465 140.931 157.353 142.99 158.711C144.147 159.493 147.988 161.61 148.219 161.633C148.265 161.633 148.034 161.288 147.733 160.897ZM113.237 150.428C112.543 132.849 112.289 129.397 111.456 125.923C110.091 120.171 108.518 117.525 103.266 112.164C99.5641 108.367 98.7312 107.125 95.9549 101.142C95.0063 99.1175 94.2197 97.4838 94.1734 97.5299C94.1271 97.5759 94.2891 98.7953 94.5436 100.222C95.9317 107.976 96.3019 114.395 95.5847 117.87C94.4973 123.116 90.2634 133.171 87.4871 137.082C86.7699 138.072 85.6362 138.854 84.8728 138.854C83.716 138.854 97.8983 146.884 107.06 151.417C112.266 153.971 112.312 153.994 112.937 154.017C113.353 154.04 113.376 153.879 113.237 150.428ZM138.062 149.76C139.566 149.392 141.209 149.484 142.065 149.921C142.273 150.06 142.574 150.083 142.713 150.014C142.828 149.921 142.435 149.553 141.833 149.162C141.232 148.771 140.052 147.966 139.219 147.367C138.386 146.769 137.067 145.941 136.281 145.55L134.823 144.836V145.803C134.823 146.355 134.916 147.16 135.031 147.598C135.17 148.035 135.378 148.863 135.517 149.392C135.725 150.198 135.864 150.359 136.165 150.244C136.373 150.175 137.229 149.944 138.062 149.76ZM201.732 144.445C204.509 142.444 205.665 139.867 207.007 132.527C208.326 125.371 210.616 118.675 212.745 115.845L213.37 115.04L212.791 115.408C211.611 116.167 211.172 117.111 208.326 124.819C206.706 129.19 205.665 131.56 204.994 132.32C203.144 134.505 195.277 135.127 190.604 133.447C188.151 132.55 186.972 131.606 186.069 129.789C185.63 128.914 185.259 127.879 185.259 127.511V126.797L184.565 127.58C183.617 128.707 182.715 130.525 182.715 131.353C182.715 133.585 187.689 138.785 191.738 140.81C194.213 142.052 194.329 142.029 197.545 139.89C199.488 138.601 200.321 138.164 200.899 138.164C201.617 138.164 201.686 138.233 201.686 138.854C201.686 139.867 200.668 141.73 199.465 142.881C198.91 143.433 198.447 143.939 198.447 144.031C198.447 144.123 198.609 144.537 198.817 144.952C199.164 145.688 199.21 145.711 199.905 145.481C200.321 145.343 201.131 144.882 201.732 144.445ZM82.3741 135.242C82.3278 133.999 82.2584 130.548 82.2121 127.58C82.1427 123.852 82.0039 121.827 81.7957 121.045L81.4486 119.941L80.3613 123.116C78.6723 128.017 77.77 129.305 75.4333 130.341L74.3691 130.801L74.9243 131.399C76.0811 132.642 81.9345 137.451 82.3047 137.474C82.3741 137.474 82.3972 136.461 82.3741 135.242ZM87.464 132.135C90.7261 126.061 93.248 119.342 93.8726 114.971C94.2659 112.118 93.1786 103.397 91.559 96.6325C89.7082 88.8784 89.5925 88.5103 88.7133 87.5899C88.4357 87.2908 87.8342 86.8537 87.3946 86.6236C86.5385 86.2094 83.0219 84.9669 81.5875 84.5988L80.7546 84.3687L81.333 85.5651C82.6517 88.2572 83.5077 90.5121 84.2018 93.0431C84.919 95.6661 84.9422 95.8042 84.9422 101.004C84.9653 106.733 84.8728 107.447 83.554 112.785L82.7211 116.075L83.207 117.456C84.1324 120.125 84.3869 122.656 84.3869 129.881L84.41 136.668L85.1735 135.817C85.59 135.334 86.6311 133.677 87.464 132.135ZM82.2121 108.597C82.9293 105.261 83.1838 100.038 82.7905 97.4378C82.3047 94.2396 80.7777 90.0289 78.5567 85.6342C77.8626 84.2306 77.6775 83.6094 77.7238 82.8731C77.7932 81.9297 77.7469 81.8837 76.5207 81.0554C75.8266 80.5722 74.7161 79.6518 74.0451 79.0076L72.8189 77.8111V79.3067C72.8189 83.0342 73.9989 87.0607 76.8677 93.0661C79.6672 98.9564 79.8523 99.7157 79.7134 105.1C79.5978 109.472 79.7829 110.99 80.6389 112.44L81.0322 113.084L81.333 112.233C81.4949 111.749 81.8882 110.116 82.2121 108.597ZM133.759 104.893C134.013 104.225 133.898 102.822 133.458 101.096C132.672 98.013 129.155 90.6502 127.559 88.7634C126.332 87.3138 126.032 86.3244 126.032 83.8625C126.032 80.5722 126.402 79.9279 129.78 77.558C131.307 76.4766 131.954 75.5792 132.163 74.1987C132.486 72.1969 133.273 70.9774 136.42 67.7101C137.345 66.7207 138.039 65.9154 137.97 65.9154C137.877 65.9154 137.206 66.4216 136.489 67.0429C134.869 68.4234 134.291 68.6995 131.931 69.3208C128.785 70.1491 125.846 70.3562 118.628 70.3562C111.618 70.3332 106.69 69.965 104.029 69.2747C99.6797 68.1243 94.4048 64.4198 92.9935 61.4977C92.6927 60.8764 92.3457 60.3932 92.23 60.3932C91.9986 60.3932 90.0783 61.4056 87.0244 63.1773C85.59 63.9827 84.3869 64.9951 82.1196 67.2499C78.2559 71.0925 77.8857 71.7827 78.95 73.1633C79.2507 73.5314 79.6903 73.6465 81.333 73.7615C82.4435 73.8305 83.5077 73.9456 83.6928 74.0376C83.9936 74.1757 84.0399 73.8765 84.0399 72.0818C84.0399 70.2181 84.1093 69.85 84.572 69.2057C85.0347 68.5384 85.2429 68.4464 86.1221 68.4464H87.1169L88.1581 70.2411C89.5462 72.6341 90.3097 74.3827 90.6336 75.8553C90.9112 77.0978 90.865 81.1474 90.5642 81.7917C90.4254 82.0908 90.6799 82.1368 92.2763 82.0678L94.1503 81.9757L95.4921 83.3333C96.5795 84.4607 96.9497 85.059 97.6669 86.8997C99.4252 91.4094 100.837 92.9511 105.834 95.8962C112.15 99.6007 114.302 100.429 120.942 101.694C124.69 102.408 128.97 103.581 131.353 104.548C133.389 105.353 133.574 105.376 133.759 104.893ZM222.647 103.558C223.85 102.546 224.359 101.487 224.359 100.061C224.359 99.2785 224.498 98.8184 224.822 98.4732C225.238 98.013 225.261 97.944 224.938 97.6679C224.752 97.5068 224.591 97.1387 224.591 96.8626C224.591 96.3794 224.521 96.3564 223.503 96.4714C222.878 96.5175 222.346 96.6095 222.3 96.6555C222.254 96.7015 222.346 97.0467 222.508 97.4378C223.087 98.8414 222.3 102.937 221.213 104.133C221.028 104.318 220.889 104.571 220.889 104.663C220.889 104.893 221.606 104.456 222.647 103.558ZM230.305 95.0679C231.3 94.3776 232.434 93.3652 232.85 92.813C233.243 92.2608 233.937 91.4325 234.377 90.9953C234.817 90.5581 235.464 89.6147 235.788 88.9245C236.367 87.682 237.824 85.9333 238.31 85.9333C238.449 85.9333 238.495 85.8873 238.426 85.8182C238.38 85.7492 237.13 86.2324 235.673 86.8537C234.215 87.4979 232.642 88.0731 232.179 88.1422C231.184 88.3032 230.976 88.5103 230.745 89.4997C230.49 90.4891 229.426 92.2608 228.061 93.9404L226.881 95.39L227.413 95.8272C227.714 96.0803 228.061 96.2644 228.223 96.2874C228.362 96.2874 229.31 95.7351 230.305 95.0679ZM224.614 93.6413C225.562 93.0431 227.367 90.7422 228.2 89.1085C228.801 87.9351 228.986 86.0713 228.477 86.3014C228.13 86.4625 225.261 89.9139 224.29 91.3174C223.943 91.8236 223.387 92.767 223.064 93.3882L222.462 94.5157L223.133 94.3546C223.48 94.2626 224.151 93.9404 224.614 93.6413ZM241.364 90.19C242.243 89.3156 243.446 88.1652 244.025 87.682L245.066 86.7846L243.377 86.9457C241.387 87.1528 240.462 87.4289 239.513 88.1422C238.657 88.7864 237.662 90.4431 238.009 90.6502C238.125 90.7192 238.241 91.2024 238.241 91.7086V92.6289L239.004 92.2148C239.398 91.9847 240.462 91.0873 241.364 90.19ZM154.026 90.6962C154.697 90.374 155.113 89.1085 154.859 88.1422C154.697 87.4519 154.304 87.4059 152.059 87.797C150.88 88.0271 150.116 88.0041 147.849 87.682C146.114 87.4289 143.337 87.2678 140.422 87.2448L135.795 87.1988L136.859 87.8661C138.941 89.1776 141.625 90.144 145.119 90.8572C146.322 91.0873 153.471 90.9723 154.026 90.6962ZM157.589 85.8182L157.774 85.128L157.288 85.7262C156.987 86.1174 156.872 86.5085 156.964 86.8537C157.103 87.3599 157.126 87.3599 157.265 86.9457C157.358 86.7156 157.496 86.2094 157.589 85.8182ZM151.458 85.6802C152.106 85.4501 152.175 85.3351 152.175 84.5297C152.175 83.4023 151.574 82.8271 149.862 82.3209C147.733 81.6996 143.962 81.9527 140.376 82.9651C138.502 83.4943 134.823 84.8519 134.916 84.9669C134.985 85.0359 137.947 85.174 141.463 85.266C145.003 85.3811 148.265 85.5421 148.705 85.6802C149.838 85.9793 150.602 85.9793 151.458 85.6802ZM234.007 84.8979C235.256 84.3457 237.015 83.7014 237.894 83.5173C240.022 83.0111 240.254 82.8731 240.577 81.7917C240.832 80.9403 240.925 80.8713 241.734 80.8713C242.567 80.8713 242.613 80.8943 242.683 81.7456L242.752 82.597H246.408C249.971 82.597 250.086 82.62 250.48 83.1262C250.873 83.6554 250.896 83.6784 253.302 83.4023C258.114 82.8731 260.428 81.8837 261.839 79.7439C262.626 78.5934 262.672 78.3633 262.21 77.7651C261.909 77.3509 261.747 77.3279 259.04 77.604C257.467 77.7651 255.731 77.8801 255.199 77.8801H254.205V76.9598V76.0624L253.071 76.7527C252.446 77.1438 251.544 77.558 251.058 77.673C250.549 77.7651 247.819 77.8801 244.95 77.9031C242.081 77.9031 239.49 77.9952 239.166 78.0872C238.75 78.2023 238.333 78.7315 237.709 79.8359C237.223 80.7102 236.667 81.6076 236.459 81.8377C235.881 82.4589 233.914 83.6784 232.225 84.4377C231.393 84.8059 230.675 85.151 230.629 85.174C230.444 85.289 231.138 85.9333 231.416 85.9333C231.601 85.9333 232.758 85.4731 234.007 84.8979ZM247.472 84.6448C247.657 84.4837 246.014 84.5988 245.297 84.8059C244.834 84.9209 245.089 84.9439 245.991 84.8519C246.755 84.7828 247.426 84.6908 247.472 84.6448ZM89.4768 84.0926V83.3793L88.7365 83.7704L87.973 84.1616L88.667 84.4607C89.0604 84.6218 89.3843 84.7598 89.4305 84.7828C89.4537 84.7828 89.4768 84.4607 89.4768 84.0926ZM160.666 76.6376C160.782 75.2801 160.712 74.8429 160.296 73.9686C159.717 72.7721 159.07 71.9898 158.075 71.2765L157.358 70.7933L156.455 71.4606C155.368 72.2659 154.928 73.1173 155.183 73.9686C155.414 74.7969 156.062 76.0164 156.71 76.8447C157.843 78.3403 158.422 79.9739 158.422 81.7917L158.445 83.5173L159.486 80.8943C160.273 78.9846 160.573 77.8571 160.666 76.6376ZM154.28 81.1474C153.656 79.9279 152.36 78.9385 151.412 78.9616C149.098 79.0076 145.234 79.3757 144.54 79.6288C143.8 79.8819 144.031 79.9279 146.854 79.9509C151.597 79.9739 153.517 80.5722 154.049 82.2058C154.304 82.9881 154.35 83.0111 154.535 82.574C154.697 82.2058 154.628 81.8377 154.28 81.1474ZM87.3946 81.5846C88.7827 80.6412 89.1298 78.6394 88.32 76.2695C87.9036 75.004 86.3072 71.8978 86.099 71.8978C86.0527 71.8978 86.284 72.588 86.608 73.4624C86.9319 74.3137 87.302 75.2801 87.4408 75.6252C87.5565 75.9474 87.6259 76.6146 87.5797 77.1208L87.5103 77.9952L86.3303 78.0642C85.2429 78.1332 85.0116 78.0412 83.4846 77.0058C81.8188 75.8783 81.7725 75.8783 80.3844 75.9704C77.7469 76.2005 76.2893 75.027 76.2893 72.7031V71.5526L75.8266 72.1279C75.5953 72.45 75.1557 73.1863 74.878 73.7615C74.3922 74.7969 74.3922 74.8659 74.7855 75.6713C75.387 76.9368 77.1916 78.4554 80.5001 80.4801C81.3561 81.0094 83.4383 81.7687 84.6645 81.9987C85.8676 82.2288 86.608 82.1138 87.3946 81.5846ZM77.0528 67.2039C78.1633 66.1915 79.8291 64.834 80.7777 64.1667C82.3741 63.0163 82.4898 62.8782 82.6517 61.8658C82.8831 60.3242 82.6748 58.0003 81.6106 50.0392C81.3792 48.3595 81.1941 47.7383 80.8934 47.7383C80.5926 47.7383 77.6312 50.0162 76.7752 50.9365C75.3408 52.4321 73.1891 54.9631 72.2637 56.2056L71.3845 57.4251L71.9629 61.0375C72.31 63.0163 72.6801 65.8004 72.8189 67.1809C72.9578 68.5845 73.1197 70.034 73.1891 70.4482L73.3279 71.1845L74.2071 70.1031C74.6698 69.4818 75.9654 68.1933 77.0528 67.2039ZM143.152 70.1951C143.152 69.3208 143.245 69.0907 143.846 68.6765C145.396 67.5721 148.473 67.2039 150.648 67.8482C152.036 68.2623 152.638 68.7915 152.638 69.5969C152.638 70.2181 152.661 70.1951 153.772 69.1137C154.396 68.4694 155.09 67.9862 155.391 67.9862C155.807 67.9862 155.877 67.8482 155.877 66.9738C155.877 66.1685 155.669 65.6393 154.743 64.2358C153.563 62.441 152.43 61.4747 151.018 61.0835C150.301 60.8764 149.144 61.0605 144.633 62.1189C143.823 62.303 142.921 63.8216 142.921 65.0411C142.921 65.9384 142.805 66.1915 142.204 66.6977C141.81 67.0199 141.417 67.296 141.301 67.296C141.186 67.296 140.792 67.5721 140.399 67.8942C139.728 68.4464 139.705 68.5154 140.029 69.1367C140.491 70.011 141.972 71.2075 142.62 71.2075C143.083 71.2075 143.152 71.0925 143.152 70.1951ZM161.499 69.4358C161.568 69.2057 161.753 68.4464 161.892 67.7561C162.563 64.765 163.35 64.2818 167.792 64.0747C171.193 63.9136 171.956 63.7065 175.45 62.1189C176.19 61.7738 177.74 61.0835 178.851 60.6003C179.985 60.0941 181.673 59.3348 182.622 58.8977C183.571 58.4605 184.473 58.0693 184.635 58.0463C184.774 58.0463 184.195 57.9313 183.293 57.8392C181.511 57.6322 160.735 57.264 160.735 57.4481C160.735 57.4941 160.944 58.0003 161.221 58.5525C161.615 59.3348 161.684 59.864 161.615 61.0605C161.545 62.395 161.429 62.7172 160.666 63.6835C159.856 64.742 159.625 65.2942 159.139 67.48C158.931 68.4464 158.931 68.4464 159.903 69.1367C161.013 69.919 161.36 69.988 161.499 69.4358ZM123.903 68.2163C129.756 67.8022 132.348 67.0429 134.777 65.0641C136.859 63.3614 137.438 63.0853 139.219 62.9012C140.815 62.7172 140.075 62.7402 126.726 63.1773C113.584 63.6145 106.551 63.0853 103.682 61.4287C102.433 60.6924 101.762 59.657 100.258 56.2516C97.6206 50.1312 95.8392 43.2285 95.3533 37.3382L95.1914 35.3594L93.5487 36.5329C92.6464 37.1771 91.0269 38.3966 89.9395 39.2019C88.8521 40.0302 86.8856 41.5258 85.5437 42.5152C84.2018 43.5276 83.0682 44.3789 83.0219 44.425C82.9756 44.471 83.0913 45.4834 83.2995 46.6568C83.8316 49.625 84.5489 55.6304 84.7571 58.7366C84.8265 60.1401 84.9653 61.3136 85.0578 61.3136C85.1273 61.3136 85.937 60.8994 86.8162 60.3702C90.194 58.4145 92.3919 57.4021 93.248 57.4021C93.8726 57.4021 94.104 57.4941 94.104 57.7472C94.104 58.4375 95.5384 60.9225 96.6027 62.0729C98.6155 64.2127 103.081 66.7207 106.019 67.365C109.975 68.2393 118.05 68.6305 123.903 68.2163ZM158.861 61.7738C159.532 60.8534 159.555 60.7614 159.232 60.1401C158.19 58.1384 156.849 57.7702 150.903 57.7472H146.507L146.114 58.5295C145.882 58.9667 145.743 59.3578 145.766 59.3808C145.79 59.4039 146.646 59.2658 147.664 59.0817C150.81 58.5295 153.61 59.0357 155.137 60.4623C155.854 61.1065 157.496 63.4995 157.496 63.8906C157.52 64.0517 157.658 63.8676 157.82 63.4765C158.005 63.0853 158.468 62.326 158.861 61.7738ZM69.7187 61.1525C69.1635 57.9313 69.1172 57.7932 68.6545 58.2074C68.238 58.5755 68.2612 58.6446 68.909 60.0021C69.2792 60.7844 69.5799 61.5667 69.5799 61.7278C69.5799 61.8658 69.6493 62.0039 69.7187 62.0039C69.7881 62.0039 69.7881 61.6127 69.7187 61.1525ZM128.576 61.0835C135.587 60.7614 141.301 60.4163 141.949 60.2322C142.389 60.1171 143.615 58.4835 143.615 58.0233C143.615 57.9313 141.556 57.8622 139.057 57.8622C130.983 57.8622 127.05 57.287 123.302 55.5613C117.865 53.0303 114.764 48.3825 113.099 40.2603C112.636 37.9134 112.497 37.0391 111.687 31.0567C110.97 25.9027 111.132 26.3168 110.091 26.662C108.564 27.2142 105.857 28.6638 102.757 30.5965C101.091 31.6319 99.1476 32.7594 98.4304 33.1275C97.1811 33.7257 97.1117 33.7948 97.2273 34.485C97.2736 34.8762 97.4587 36.2337 97.5975 37.4992C98.2916 43.8497 100.027 49.8781 103.058 56.4817C103.937 58.4145 104.423 58.9437 105.973 59.68C108.564 60.8764 111.248 61.2216 118.628 61.2906C121.242 61.2906 125.708 61.2216 128.576 61.0835ZM67.6828 55.5153C68.3074 54.8481 69.7881 53.1454 70.9218 51.7418C72.1711 50.2002 73.9526 48.3825 75.3176 47.2551C78.7649 44.3559 89.0372 36.5329 93.7107 33.2426C94.7518 32.5063 94.7981 32.4372 94.7981 31.3558V30.2284L97.7595 28.3186C101.924 25.6266 115.644 17.3663 115.967 17.3663C116.014 17.3663 116.569 17.0672 117.17 16.7221C118.859 15.7327 121.196 14.8813 124.643 13.961L127.767 13.1096L133.366 13.1787C138.687 13.2247 138.988 13.2017 139.219 12.7875C139.543 12.1433 139.358 11.8211 138.108 10.9928C136.72 10.0494 135.378 9.47421 132.047 8.39278C130.589 7.90959 127.559 6.64409 125.337 5.53966C118.674 2.29538 115.482 1.78918 105.279 2.41043C99.8186 2.73255 97.1348 3.28477 93.4793 4.84939C89.8238 6.39099 82.6748 10.6937 80.2456 12.7875C79.1813 13.7309 77.261 16.0088 76.3819 17.4123C75.2945 19.115 72.4488 21.9451 69.765 23.9929C67.2432 25.9027 67.0118 26.1098 65.9013 27.3753C64.3049 29.216 63.3101 31.4248 62.4309 35.1753C60.9965 41.1807 60.8345 43.9878 61.6906 47.9684C62.4541 51.5348 63.3795 53.6746 64.8833 55.3313C65.5774 56.0906 66.2252 56.7118 66.3409 56.7118C66.4334 56.7118 67.035 56.1596 67.6828 55.5153ZM135.332 55.1932C130.427 53.9047 129.132 52.6622 126.934 47.117C123.255 37.8904 120.942 25.1434 121.821 18.9769C121.96 18.0336 122.052 17.2283 122.006 17.2052C121.89 17.0902 117.055 19.6442 113.908 21.4849C112.15 22.4973 110.669 23.3487 110.623 23.3487C110.577 23.3487 110.16 23.6248 109.674 23.9469C108.818 24.5221 108.818 24.5221 109.489 24.3611C109.883 24.269 110.415 24.108 110.716 24.0159C111.734 23.6248 112.613 23.7628 112.821 24.3381C112.937 24.6142 113.353 27.2832 113.77 30.2514C115.042 39.501 115.921 43.1595 117.749 46.6568C120.849 52.5702 126.911 55.6534 135.633 55.7454L137.484 55.7684L135.332 55.1932ZM187.342 55.1472C188.799 54.3879 189.655 53.3065 189.655 52.179C189.655 49.7861 185.93 42.2851 182.414 37.6143C178.11 31.931 172.743 26.616 165.825 21.2778C161.869 18.2176 161.152 18.0106 159.208 19.2991C157.311 20.5646 155.993 22.6584 153.841 27.8354C151.921 32.4603 150.509 37.2231 149.283 43.2515C148.705 45.9896 147.132 54.756 147.178 54.802C147.409 55.0551 156.71 55.3313 165.594 55.3543C171.517 55.3773 177.555 55.4693 179.013 55.5613C184.936 55.9065 185.954 55.8605 187.342 55.1472ZM145.142 53.1454C145.304 52.3861 145.651 50.5224 145.928 49.0038C148.427 35.0603 150.972 26.731 154.604 20.6106C155.669 18.8159 157.496 16.9521 158.26 16.8831C159.463 16.7681 152.846 16.1698 147.27 15.8937L140.422 15.5256L139.242 16.1238C137.484 17.0442 134.615 17.1362 130.451 16.4459C128.715 16.1468 127.003 15.9858 126.679 16.0548C125.754 16.2849 124.505 17.5964 124.181 18.6318C123.093 22.2902 124.181 30.6886 126.911 39.6851C128.97 46.4037 130.636 49.9932 132.348 51.2817C134.083 52.6162 135.309 52.9613 143.036 54.3879C144.772 54.71 144.818 54.664 145.142 53.1454ZM193.033 52.8463C193.218 52.4321 193.496 51.4427 193.681 50.6374C194.306 47.6922 193.079 38.1895 191.298 31.862C191.067 31.0337 190.534 29.1239 190.118 27.6053C189.146 24.131 188.614 23.0265 187.157 21.692C185.098 19.7823 183.478 19.23 177.787 18.5168C173.668 18.0106 165.363 17.2973 165.224 17.4353C165.154 17.4814 165.409 17.7114 165.756 17.9415C167.144 18.8389 171.864 22.7504 174.71 25.3505C181.28 31.3328 185.468 36.6019 188.869 43.2975C191.367 48.1754 192.293 51.4657 191.784 53.6746L191.552 54.687L192.131 54.1348C192.455 53.8587 192.871 53.2604 193.033 52.8463Z"
        fill="url(#paint0_linear_1_3401)" />
    <defs>
        <linearGradient id="paint0_linear_1_3401" x1="132.5" y1="0.269287" x2="132.911" y2="206.893"
            gradientUnits="userSpaceOnUse">
            <stop stop-color="white" />
            <stop offset="0.460447" stop-color="#5F30B0" />
            <stop offset="1" stop-color="#18181B" />
        </linearGradient>
    </defs>
</svg>