<svg viewBox="0 0 267 156" fill="none" xmlns="http://www.w3.org/2000/svg">
    <path
        d="M130.086 2.37218C125.306 3.90415 122.916 5.25227 122.548 6.72296C122.303 7.64214 121.752 7.94855 120.342 7.94855C116.053 7.94855 110.477 16.0373 110.477 22.2265C110.477 23.5134 110.048 24.0649 108.822 24.5551C106.616 25.3517 104.471 27.3739 103.246 29.7025C101.959 32.2762 102.02 40.8553 103.368 45.635C104.961 50.9663 106.371 52.8659 111.518 56.7878C114.031 58.6874 116.237 60.6483 116.421 61.1998C116.604 61.7513 117.707 62.9769 118.81 64.0187C120.342 65.4894 121.139 67.0213 122.365 71.3721C123.223 74.3748 123.958 78.3579 123.958 80.135C123.958 82.8925 123.774 83.444 122.61 83.873C121.813 84.1794 119.791 85.3437 118.014 86.5693C116.114 87.8561 113.724 88.8366 111.886 89.143C107.596 89.7558 105.636 90.9813 105.574 93.0035C105.574 93.4325 106.8 95.087 108.271 96.6803C113.05 101.828 115.501 108.63 115.624 116.718C115.685 121.866 114.95 124.44 114.092 122.172C113.847 121.559 113.602 119.966 113.602 118.679C113.54 114.88 111.702 107.772 109.802 104.095C106.739 97.9671 102.081 94.5355 96.1373 93.9227C92.0929 93.555 84.9846 95.0257 80.021 97.4156C76.7119 98.9476 76.0991 99.4378 76.283 100.602C76.4055 101.644 77.2634 102.257 80.021 103.237C85.4748 105.137 88.5387 107.71 90.806 112.123C93.3185 117.27 93.441 122.601 91.1737 127.258C89.5805 130.384 87.4357 132.835 86.8229 132.222C86.6391 131.977 86.9455 130.996 87.497 129.955C88.0485 128.852 88.7838 125.849 89.1515 123.214C89.7643 118.986 89.7643 118.067 88.7838 115.493C88.1711 113.9 86.8842 111.755 85.9037 110.652C83.6364 108.017 78.3052 105.504 73.7093 104.892C71.1968 104.524 69.5423 103.911 68.5006 102.931C66.4784 101.031 66.5396 100.418 69.3585 98.6412C70.6453 97.7833 72.6675 95.8836 73.8318 94.3517C75.3638 92.3295 76.8958 91.1652 79.5307 90.0622C85.5973 87.5497 90.2545 84.5471 90.6222 83.0151C91.1124 80.9316 89.9481 79.2158 87.497 78.4192C84.5556 77.4387 83.33 77.8064 73.7705 82.5249C62.6178 88.0399 62.2501 87.6723 61.2697 72.3526C60.7182 63.4059 60.7794 62.6705 62.1276 57.6457C63.2919 53.4787 63.5983 50.8437 63.5983 44.8997C63.5983 36.3206 63.108 35.2789 59.2475 35.2789C56.061 35.2789 54.9579 36.8722 54.529 42.3872C54.3452 44.8384 53.6098 48.3926 52.9357 50.2922C51.7715 53.3561 49.8718 61.0773 49.8105 62.7931C49.8105 63.0995 49.3816 62.9769 48.8913 62.4254C48.2786 61.8126 47.7883 59.1776 47.3594 53.9077C46.3789 41.7745 41.9668 29.2123 37.9837 27.1901C35.9002 26.0871 34.307 26.516 32.6525 28.5995C30.9979 30.7443 31.1205 32.7052 33.2652 38.5267C35.0423 43.4903 36.5743 52.2531 36.2066 55.5009C36.0841 56.4814 35.6551 54.7656 35.2262 51.7016C34.4295 45.5737 33.0814 41.2842 30.5077 36.1368C27.5663 30.1928 24.9313 28.5382 22.664 31.1119C21.1933 32.7665 21.3772 35.2176 23.4606 41.2229C24.8701 45.3286 25.299 47.5959 25.299 51.2727C25.299 53.9077 25.6054 57.8295 25.9118 59.9743C26.2795 62.119 26.402 64.0187 26.2182 64.2025C26.0344 64.3863 25.0539 63.5284 24.0121 62.3029C22.9704 61.0773 20.2741 58.7487 18.0681 57.1554C15.8008 55.5622 11.8789 52.4982 9.36651 50.3535C5.9349 47.4734 4.40293 46.5542 3.23863 46.6768C2.01306 46.7993 1.64538 47.2283 1.52283 48.7602C1.33899 50.5373 2.13562 51.5791 8.75373 58.5648C17.3328 67.6341 19.4775 70.6368 20.7644 75.3552C23.2768 84.6083 25.0539 89.6945 28.0566 96.1288C29.8949 100.051 31.9171 105.443 32.6525 108.139C34.6134 115.738 37.5548 121.253 41.8443 125.175C46.0725 129.158 50.1169 130.874 57.4091 131.854C60.1666 132.222 64.3949 133.325 66.846 134.305C71.5032 136.144 78.1213 136.818 81.6755 135.715C83.0849 135.286 83.1462 135.347 82.227 136.328C81.4917 137.063 80.021 137.369 76.0991 137.431C71.5645 137.553 70.584 137.308 67.7652 135.837C65.9881 134.918 64.2723 134.183 63.9047 134.183C62.7404 134.183 63.2919 137.002 65.0689 139.821C68.7457 145.642 73.648 146.01 79.4082 140.924C81.4917 139.146 81.6755 139.085 81.6755 140.249C81.6755 140.924 82.3496 141.965 83.1462 142.517C84.0041 143.007 84.862 144.294 85.0458 145.274C85.291 146.255 85.7199 147.174 86.0263 147.419C86.6391 147.787 89.6417 152.321 89.6417 152.873C89.6417 153.057 89.6417 153.792 89.6417 153.792H90.7448L90.4384 152.383C90.1933 151.647 89.703 150.483 89.2128 149.809C88.1098 148.154 88.1711 148.093 90.2545 147.174C93.3185 145.765 97.9144 141.23 99.5689 137.737C103.184 130.384 103.613 116.473 100.182 117.147C99.3238 117.331 99.0787 118.312 98.6497 123.03C97.9757 131.119 96.505 134.673 91.4188 140.004C89.0902 142.456 87.1906 144.907 87.1906 145.458C87.1906 146.01 86.9455 146.439 86.5778 146.439C86.2714 146.439 85.965 145.826 85.965 145.029C85.965 143.375 85.3522 142.517 84.0654 142.027C83.5139 141.781 82.9011 140.74 82.7785 139.698C82.4721 137.615 82.3496 137.737 89.1515 131.548C97.0565 124.256 94.544 109.242 84.433 103.972C83.0849 103.298 81.0014 102.44 79.7759 102.073C78.5503 101.705 77.4473 101.154 77.3247 100.786C76.957 99.8055 82.7785 96.9867 87.3744 95.8224C93.5636 94.2904 99.2625 94.7806 102.633 97.1705C108.209 101.031 111.151 107.098 112.376 117.331C113.234 123.888 113.908 125.114 115.501 123.153C116.359 122.111 116.604 120.702 116.604 117.086C116.604 108.507 114.153 101.583 109.19 95.9449C106.126 92.5133 106.371 91.2877 110.231 90.4911C115.685 89.3268 117.156 88.7753 119.362 86.9982C120.649 85.9565 122.365 84.976 123.161 84.7922C124.877 84.3632 125.429 82.4636 125.061 78.7868L124.755 76.0906L127.389 78.1741C128.921 79.2771 132.169 81.238 134.682 82.4636C139.094 84.6696 139.4 84.7309 144.425 84.4245C150.369 84.0568 154.291 82.2797 158.826 77.9289C160.357 76.5195 161.644 75.3552 161.767 75.3552C161.889 75.3552 161.951 76.5808 161.951 78.0515C161.951 81.5444 162.992 84.4245 164.463 84.8534C167.772 85.8952 168.324 89.3881 166.179 95.6998C164.402 101.031 162.318 104.279 158.826 107.465C155.333 110.591 151.411 112.123 146.876 112.123C136.704 112.123 126.103 101.95 124.877 91.1039C124.448 87.1208 123.529 86.3241 121.2 87.8561C119.362 89.0817 119.178 92.1456 120.588 97.722C122.916 106.791 127.941 113.042 136.03 116.902C140.626 119.108 141.055 119.17 147.55 119.17C153.984 119.17 154.536 119.047 158.397 117.147C165.934 113.471 172.491 103.789 174.697 93.2486C175.248 90.4298 175.922 88.1625 176.229 88.1625C176.474 88.2238 177.332 88.2238 178.19 88.2238C180.641 88.2238 180.579 89.5106 177.944 94.1066C171.51 105.259 170.162 117.209 173.9 129.771C174.452 131.487 175.309 133.386 175.861 133.938C176.78 134.796 176.964 134.857 177.577 133.999C178.067 133.264 178.067 131.425 177.454 126.707C175.861 113.777 176.903 107.159 181.866 96.9867C184.256 92.2069 185.053 91.1039 187.32 89.7558C190.262 88.0399 193.325 87.7948 195.654 89.143L197.186 90.0009L195.348 90.0622C194.306 90.0622 192.222 90.6749 190.752 91.4103C185.237 94.2291 182.54 103.85 183.95 115.922C184.685 122.724 185.359 124.378 187.136 124.378C188.301 124.378 188.362 124.133 187.933 118.373C187.014 105.014 191.058 93.1261 196.573 93.1261C197.309 93.1261 198.289 92.7584 198.657 92.2682C199.147 91.6554 200.005 91.5941 201.966 91.9618C203.375 92.2069 205.459 92.452 206.623 92.5133C208.768 92.5133 215.876 95.3934 215.876 96.2513C215.876 96.5577 214.405 96.7416 212.567 96.7416C207.358 96.6803 204.233 98.825 201.659 104.463C200.495 107.036 200.25 108.568 200.25 114.022C200.25 120.273 200.311 120.579 202.64 125.297C204.294 128.607 206.194 131.242 208.829 133.877L212.69 137.676L210.912 138.718C209.135 139.759 209.074 139.759 207.849 138.227C207.113 137.308 205.397 136.021 204.049 135.347C202.64 134.612 200.311 132.835 198.963 131.364C194.49 126.584 192.59 129.955 196.573 135.47C199.024 138.779 202.088 140.924 204.294 140.924C205.765 140.924 205.826 141.046 205.949 146.868C206.071 150.115 206.439 153.302 206.439 153.302V153.562L207.42 153.179L207.113 147.787C206.807 141.781 206.868 141.598 210.974 139.575L213.731 138.166L217.04 139.882C222.984 142.884 226.722 141.843 228.071 136.818C228.867 133.999 228.867 133.509 228.193 132.467C227.764 131.793 227.213 131.854 225.129 132.896C223.23 133.877 221.698 134.183 218.879 134.06C215.937 133.938 214.957 134.122 214.344 134.98C213.915 135.531 213.302 136.021 212.996 136.021C212.628 136.021 210.851 134.428 209.013 132.467C202.762 125.972 199.882 117.821 201.108 110.284C202.395 102.257 205.826 98.2122 211.832 97.5994C215.754 97.1705 216.182 97.8446 213.18 99.4991C210.116 101.092 207.297 104.095 206.01 106.914C202.701 114.083 207.052 126.584 214.283 130.813C218.205 133.08 220.717 132.835 230.399 129.097C235.056 127.258 240.878 125.052 243.39 124.072C254.42 119.905 257.117 113.348 254.727 96.19C253.072 84.302 253.256 80.0124 255.646 72.9041C257.301 68.1243 257.73 65.6732 258.158 58.81C259.139 43.429 260.671 35.8917 264.225 28.1706C265.696 24.9841 265.941 19.2238 264.715 17.508C263.551 15.9761 260.61 16.0373 259.323 17.6919C258.71 18.4272 257.791 20.4494 257.178 22.2265C256.627 23.9423 255.156 27.3127 253.992 29.7025C252.766 32.0311 251.357 35.5853 250.866 37.5462C250.315 39.5071 249.641 41.1004 249.273 41.1004C248.047 41.0391 245.964 25.9645 244.493 6.17146C244.187 2.61729 243.145 1.20787 240.633 1.20787C238.672 1.20787 236.282 3.53647 235.547 6.11018C235.118 7.70343 234.995 7.88727 234.934 6.84553C234.873 6.11018 234.444 4.51693 234.015 3.35264C233.218 1.51427 232.789 1.20787 231.073 1.20787C225.987 1.20787 224.149 5.37483 224.21 16.834C224.271 21.1848 224.761 28.4769 225.313 32.9503C225.926 37.4849 226.232 41.2842 226.048 41.4681C225.558 41.9583 225.681 42.1421 223.046 36.7496C221.269 33.1954 220.349 30.1928 219.185 23.5746C217.285 13.4024 216.489 11.1963 214.283 10.3997C212.261 9.60306 209.932 10.8899 209.503 13.0347C208.155 19.4077 208.768 27.9867 211.28 37.6688C212.138 41.0391 213.241 46.5542 213.731 49.9245C214.222 53.2949 214.773 57.1554 215.018 58.5036C215.325 60.4032 215.141 61.3224 214.222 62.4254C213.18 63.7123 212.873 63.7735 211.525 63.0995C210.729 62.6705 208.339 60.7096 206.194 58.6874C199.147 52.1306 193.203 49.9245 189.649 52.437C184.746 55.8686 187.627 61.5062 197.676 68.1856C200.373 69.9627 202.64 72.0462 203.927 74.0071C206.5 77.8064 208.523 79.3996 212.138 80.5027C213.67 80.9929 217.102 82.5249 219.737 83.873C222.372 85.2824 225.129 86.3854 225.926 86.3854C227.948 86.3854 228.132 86.8757 226.661 88.5302C225.252 90.0622 224.21 91.8392 223.291 94.4129C222.494 96.6803 218.756 97.4156 216.857 95.6998C214.467 93.4938 210.729 92.0844 205.275 91.349C201.476 90.8588 199.27 90.1847 197.738 89.143C194.612 86.9982 191.855 86.6305 188.607 87.9174C184.256 89.5719 180.702 94.8419 177.944 103.727C175.371 112.184 175.187 117.76 177.025 131.119C177.393 133.631 177.332 133.815 176.413 132.957C174.758 131.364 172.981 122.785 172.981 116.167C172.981 108.262 174.574 102.379 178.557 95.2096C180.212 92.2069 181.499 89.3881 181.437 88.8366C181.254 87.9174 175.8 86.4467 175.064 87.1208C174.881 87.3046 174.268 89.9396 173.655 92.9423C172.429 98.9476 170.162 103.911 166.24 109.12C159.132 118.679 147.673 121.314 136.397 115.983C132.414 114.145 126.899 109.181 124.755 105.566C121.323 99.6829 119.607 89.4494 121.874 88.5915C123.406 87.9787 123.774 88.5915 124.142 92.2069C124.877 99.6216 130.882 107.588 138.358 111.203C141.484 112.735 142.77 112.98 146.937 112.98C151.104 112.98 152.33 112.735 155.149 111.265C161.338 108.078 165.689 102.073 167.833 93.6776C169.182 88.4076 168.63 86.1403 165.627 84.2407C163.544 82.8925 163.176 82.341 163.054 80.3801C162.87 76.2131 163.299 72.8428 164.157 71.1883C164.708 70.1465 165.015 67.6341 165.015 64.5089C165.015 60.0968 165.198 59.3615 166.24 58.81C166.853 58.4423 167.772 57.0329 168.14 55.5622C168.569 54.1528 170.223 51.3339 171.878 49.3117C175.8 44.4094 176.903 40.9778 176.841 33.6856C176.78 24.2487 173.41 17.7531 168.569 17.7531C167.159 17.7531 166.24 17.2016 164.77 15.4858C159.929 9.66435 152.391 4.08797 146.754 2.06577C143.445 0.901475 134.13 1.02404 130.086 2.37218ZM149.389 4.57821C154.659 7.2132 159.806 11.1963 162.564 14.6892L164.647 17.3242L159.5 16.8953C156.619 16.7114 152.207 16.3437 149.634 16.1599C146.447 15.9148 144.18 16.0373 142.587 16.5889C141.177 17.0791 137.194 17.3855 132.843 17.4468H125.429L119.423 20.3881C110.905 24.4938 110.354 24.31 112.315 18.1821C114.092 12.7283 118.014 8.56132 121.445 8.56132C123.345 8.56132 123.774 8.31621 123.713 7.45831C123.651 6.78424 124.754 5.86506 127.022 4.70076C131.495 2.49473 134.927 1.82066 140.503 2.12705C144.241 2.31089 145.834 2.73984 149.389 4.57821ZM232.483 2.8624C233.095 3.53647 233.586 7.27448 234.015 14.6279C234.995 29.7638 236.098 39.9974 236.772 40.6714C237.936 41.897 238.12 40.2425 237.324 35.953C236.895 33.5018 236.404 26.1484 236.221 19.5915C235.914 5.98763 236.404 3.47519 239.53 2.67857C242.839 1.82066 243.023 2.3109 244.493 17.8144C245.658 30.5604 247.128 40.1199 248.109 41.7132C248.844 42.9387 250.805 42.2647 251.173 40.5489C252.276 35.5853 252.888 33.8695 254.849 30.3766C256.014 28.2318 257.362 25.1066 257.852 23.3908C259.629 17.508 262.693 15.5471 264.409 19.2851C265.267 21.246 264.593 24.8615 262.203 30.3766C259.261 37.3011 258.097 44.1031 256.933 60.6483C256.565 66.4085 256.014 69.2886 254.911 72.2913C252.092 79.6448 251.847 82.5249 253.317 92.1456C254.972 103.115 254.788 111.755 252.766 115.677C251.05 118.924 247.68 121.376 242.042 123.52C239.591 124.44 234.26 126.462 230.215 128.055C226.11 129.648 221.943 131.18 220.962 131.364C218.143 131.977 214.405 130.2 211.28 126.707C204.723 119.415 204.049 108.446 209.871 103.115C212.199 100.97 217.837 97.8446 220.288 97.4156L222.494 96.9867L222.923 99.6829C223.352 102.502 226.293 106.607 227.887 106.607C229.112 106.607 229.051 106.424 226.232 100.725L223.72 95.6385L225.007 92.9423C225.742 91.4716 226.968 89.6332 227.764 88.8979C229.174 87.5497 229.357 87.5497 230.706 88.4689C232.238 89.5719 235.853 89.7558 238.243 88.8366C240.817 87.8561 239.407 86.8757 236.098 87.3046C234.444 87.5497 232.666 87.4272 232.054 87.0595C231.38 86.7531 228.99 86.0178 226.6 85.4662C224.271 84.9147 220.778 83.5666 218.94 82.4023C217.102 81.2993 214.773 80.135 213.731 79.9511C210.238 79.0932 207.236 76.9485 205.091 73.7007C203.743 71.6785 201.537 69.4725 199.147 67.8792C191.119 62.4867 188.301 59.484 188.301 56.4201C188.301 54.9494 191.61 52.0693 193.387 52.0693C195.715 52.0693 200.066 54.643 204.172 58.5036C209.319 63.2833 210.851 64.3251 212.935 64.3251C215.815 64.3251 216.734 60.5258 215.325 54.5204C214.957 52.9885 214.651 50.8437 214.651 49.6794C214.651 48.5151 213.609 43.429 212.383 38.3428C210.422 30.1928 210.116 28.1093 210.116 21.0009C210.055 14.199 210.238 12.7283 211.096 11.8704C212.506 10.461 214.957 11.1963 215.815 13.2798C216.182 14.2603 217.285 19.1013 218.266 24.1261C219.675 31.2345 220.595 34.2372 222.372 37.6075C225.068 42.8162 225.619 43.6128 226.477 43.0613C227.09 42.6936 226.845 36.8109 225.681 27.2514C224.884 20.4494 224.945 10.8286 225.742 7.58087C226.171 5.86506 227.151 4.27182 228.254 3.35264C230.399 1.57555 231.318 1.45299 232.483 2.8624ZM151.227 17.1404C155.026 17.2016 151.166 18.1821 145.589 18.6111C142.525 18.8562 135.356 19.7141 129.718 20.5107C124.08 21.3686 119.362 21.9201 119.239 21.7976C119.117 21.675 120.465 20.9396 122.242 20.143C124.877 19.04 127.083 18.6723 133.762 18.3047C138.297 17.9983 143.138 17.5693 144.486 17.2016C145.834 16.8953 147.489 16.7727 148.163 16.8953C148.837 17.0178 150.246 17.1404 151.227 17.1404ZM165.689 19.3464C168.998 21.0622 170.101 24.6777 170.407 34.7274C170.652 42.6323 170.775 43.4903 171.755 43.4903C173.226 43.4903 173.594 41.7745 173.594 34.2984C173.532 26.945 172.858 23.2683 171.02 20.6333L169.733 18.8562L171.02 19.5302C171.694 19.8979 173.042 21.7976 174.023 23.6972C175.616 26.945 175.738 27.8029 175.738 33.992C175.738 39.691 175.493 41.1617 174.39 43.4903C172.429 47.4121 167.895 52.9272 166.179 53.3562C165.382 53.6013 161.644 53.7851 157.906 53.8464C151.595 53.9077 151.043 53.7851 149.082 52.3757C146.937 50.7824 147.611 50.2922 150.553 51.4565C152.269 52.0693 166.608 50.7212 168.508 49.7407C169.12 49.373 170.04 48.3926 170.53 47.5347C171.633 45.3899 170.775 44.4707 168.324 45.3286C167.343 45.635 158.703 46.738 149.082 47.7798C139.461 48.8215 128.064 50.2309 123.713 50.8437C119.362 51.5178 114.889 52.0693 113.786 52.0693C111.825 52.0693 111.702 51.8855 110.783 48.7602C110.231 46.9219 109.496 41.897 109.067 37.5462C108.393 30.4379 108.209 29.7025 107.106 29.7025C105.329 29.7025 104.716 34.421 105.574 40.9778C106.432 47.4121 107.474 49.9858 110.17 52.4982C112.07 54.2141 112.928 55.746 112.009 55.746C111.825 55.746 110.477 54.643 108.945 53.2336C105.513 50.1084 103.797 45.635 103.307 38.7718C102.817 32.3375 104.042 28.8446 107.351 26.5773C110.048 24.8002 120.281 22.6555 134.927 20.8171C154.475 18.3047 162.931 17.8757 165.689 19.3464ZM171.755 24.4325C172.736 28.2931 173.165 34.1146 172.675 38.2203C172.123 43.5515 171.204 43.429 171.633 38.0977C172 32.9503 170.897 24.5551 169.549 21.8588L168.508 19.8979L169.856 21.0622C170.53 21.7363 171.388 23.207 171.755 24.4325ZM39.3318 29.7638C42.3958 33.5018 45.4597 43.9805 46.2564 53.1723C46.9917 62.3641 47.4207 63.8961 49.3203 63.5897C50.4233 63.4672 50.791 62.7931 51.4038 59.4228C51.8327 57.2167 52.7519 53.9077 53.4873 52.0693C54.1613 50.2309 55.0192 46.4316 55.2643 43.6128C55.8159 38.159 56.9189 36.1368 59.3087 36.1368C60.0441 36.1368 61.1471 36.6883 61.7599 37.3624C62.6791 38.4041 62.8016 39.4459 62.4952 46.6768C62.3114 52.1919 61.8825 55.746 61.1471 57.5844C60.3505 59.7291 60.1054 62.2416 60.1666 68.6758C60.2279 80.5027 61.5761 86.3854 64.4562 87.3046C65.1915 87.5497 68.6844 86.1403 74.3833 83.3215C79.4082 80.8703 84.0041 79.032 85.0458 79.032C87.3744 79.032 89.6417 80.5639 89.6417 82.0959C89.6417 83.5053 83.5139 87.6723 78.9792 89.2655C77.3247 89.8783 75.2412 91.1652 74.3833 92.1456C70.4002 96.619 68.0103 98.6412 66.4784 99.0701C65.5592 99.254 63.8434 100.051 62.6791 100.847C61.5148 101.583 59.37 102.379 57.9606 102.624C54.9579 103.115 54.1 103.911 55.9384 104.463C57.7768 105.075 60.8407 104.279 63.5983 102.502C65.3753 101.337 66.0494 101.092 66.2332 101.705C66.4171 102.195 67.2137 103.176 68.0103 103.911C69.2359 105.075 69.4197 105.504 68.8682 106.546C67.8878 108.262 68.0103 109.671 69.1134 109.671C69.6649 109.671 70.5228 108.691 71.0743 107.527C72.1773 105.198 72.2998 105.198 78.2439 107.036C81.7368 108.139 86.3327 112.061 87.5583 115.003C89.2741 119.047 88.1098 127.442 85.2909 132.161C82.9011 136.021 74.6284 136.389 66.2332 133.019C63.6595 131.977 60.7182 131.119 59.7377 131.119C53.0583 131.119 45.1533 127.749 40.9864 123.091C37.5548 119.292 35.7777 115.554 33.3265 107.036C32.2848 103.421 30.4464 98.5186 29.2821 96.19C26.2182 90.1234 24.8701 86.5693 22.7866 78.7868C21.7448 75.0488 20.2741 70.8819 19.4775 69.4725C18.6809 68.1243 14.6978 63.4672 10.6534 59.2389C3.11608 51.2727 1.70666 49.4343 2.31945 48.3926C3.0548 47.167 4.7706 47.8411 8.07966 50.7212C9.9793 52.3757 13.1658 54.8881 15.188 56.2975C17.2102 57.7682 20.3967 60.4645 22.3576 62.3641C24.2573 64.2025 26.0956 65.4894 26.4633 65.3055C26.8923 64.9991 27.0148 61.9965 26.7697 55.8686C26.402 47.7185 26.2182 46.2478 24.2573 40.4876C22.4802 35.2176 22.2351 33.9308 22.7866 32.6439C23.3381 31.4796 23.8896 31.1732 25.1764 31.357C26.5246 31.4796 27.2599 32.2762 29.0983 35.8304C32.2235 41.7132 33.6942 46.5542 34.4908 54.0302C35.1649 60.0968 35.7777 61.9965 36.7581 61.016C37.3709 60.4032 37.1258 50.6599 36.3905 45.9414C36.0228 43.8579 34.9198 39.9361 33.878 37.2398C31.9171 32.215 31.9171 30.683 33.7555 28.5995C35.2262 26.8837 37.2484 27.3127 39.3318 29.7638ZM108.209 37.7913C108.393 41.4068 108.945 45.8801 109.435 47.6572C110.599 52.008 109.312 51.5791 107.842 47.1057C106.677 43.6741 105.697 33.318 106.432 31.5409C107.229 29.3961 107.842 31.4796 108.209 37.7913ZM169.917 46.4316C169.917 46.738 169.365 47.4734 168.691 48.0862C166.914 49.6794 153.556 51.3339 150.43 50.2922C148.592 49.6794 146.57 49.7407 140.013 50.476C135.478 51.0276 131.679 51.4565 131.556 51.4565C131.434 51.4565 130.821 52.008 130.147 52.7434C129.289 53.7238 127.451 54.2753 122.916 54.9494C119.607 55.4396 116.421 56.1137 115.869 56.4201C115.072 56.849 114.521 56.6039 113.786 55.4396C113.234 54.5817 112.866 53.7851 112.989 53.6625C113.54 53.1723 135.601 50.1084 146.937 49.0054C160.97 47.5959 168.14 46.6768 168.569 46.2478C169.059 45.7576 169.917 45.8801 169.917 46.4316ZM147.55 52.6821C150.308 54.8881 152.453 55.3171 159.132 55.072C164.095 54.8268 164.341 54.8881 164.095 56.0524C163.176 60.8322 162.564 65.2442 162.318 68.8597C162.012 72.9041 161.828 73.2718 159.377 75.8455C156.129 79.1545 152.085 82.0346 149.511 82.77C148.408 83.0764 145.528 83.3828 143.077 83.3828C139.216 83.3828 138.113 83.1376 134.804 81.4831C126.041 76.9485 122.548 72.23 121.2 63.0995L120.771 60.3419L125.306 59.1776C129.228 58.1972 130.147 57.7069 132.659 55.0107C135.601 51.9467 136.826 51.5178 144.241 50.905C144.793 50.905 146.263 51.6403 147.55 52.6821ZM132.292 54.2753C130.453 57.0329 121.139 60.1581 118.014 59.0551C114.889 57.9521 115.992 57.2167 122.548 56.1137C127.573 55.2558 129.534 54.643 130.882 53.54C133.088 51.7016 133.701 52.0693 132.292 54.2753ZM166.485 56.849C165.505 58.2585 165.321 58.3197 165.137 57.4006C165.015 56.7878 165.382 55.746 165.995 55.0107C167.527 53.3561 167.895 54.7043 166.485 56.849ZM119.913 61.6288C120.526 63.2833 119.73 63.4672 118.32 61.9965L116.972 60.6483H118.259C118.933 60.6483 119.73 61.0773 119.913 61.6288ZM196.573 91.8392C193.693 92.5746 192.161 93.555 190.874 95.6998C187.994 100.357 186.156 111.694 187.075 118.863C187.32 121.069 187.32 123.091 187.075 123.337C186.217 124.317 185.175 119.721 184.808 113.287C184.011 99.1927 187.933 91.1652 195.593 91.349C198.105 91.4103 198.228 91.4716 196.573 91.8392ZM226.6 104.647C226.171 105.075 223.842 100.847 223.842 99.6217C223.842 98.9476 224.516 99.7442 225.374 101.399C226.171 103.053 226.722 104.524 226.6 104.647ZM101.285 124.194C101.285 131.058 100.366 134.857 97.7305 138.779C95.7083 141.781 89.7643 147.051 88.3549 147.051C86.9455 147.051 88.1098 144.784 90.806 142.21C97.0565 136.266 99.4464 130.935 99.4464 122.908C99.4464 120.456 99.6302 118.25 99.8753 118.067C100.733 117.147 101.285 119.353 101.285 124.194ZM198.902 132.773C199.944 133.938 202.088 135.531 203.682 136.328C205.275 137.186 206.807 138.166 207.052 138.534C207.665 139.575 206.01 140.372 203.927 140.004C200.924 139.453 194.306 132.161 195.348 130.506C195.838 129.71 196.635 130.2 198.902 132.773ZM226.784 137.676C226.355 138.595 225.252 139.759 224.394 140.249C222.923 141.046 222.494 141.046 219.92 140.066C218.389 139.453 216.489 138.472 215.754 137.86C214.589 136.94 214.467 136.634 215.202 135.776C215.876 134.918 216.734 134.796 219.185 135.102C221.514 135.347 222.923 135.163 224.761 134.305L227.213 133.141L227.396 134.551C227.519 135.347 227.213 136.757 226.784 137.676ZM75.9153 138.35C81.2466 137.982 81.3691 138.411 77.1409 141.353C72.8514 144.294 70.584 144.171 67.1524 140.617C65.6817 139.085 64.5174 137.308 64.5174 136.634C64.5174 135.531 64.7013 135.531 67.9491 137.063C70.9517 138.411 71.9935 138.595 75.9153 138.35Z"
        stroke="url(#paint0_linear_4_568)" stroke-width="2" />
    <defs>
        <linearGradient id="paint0_linear_4_568" x1="133.5" y1="1.20787" x2="133.5" y2="153.792"
            gradientUnits="userSpaceOnUse">
            <stop stop-color="white" />
            <stop offset="0.53" stop-color="#5F30B0" />
            <stop offset="1" stop-color="#18181B" />
        </linearGradient>
    </defs>
</svg>