<svg viewBox="0 0 269 239" fill="none" xmlns="http://www.w3.org/2000/svg">
    <path
        d="M44.2381 3.81605C43.3156 4.67269 42.5907 6.05648 42.5907 6.91311C42.5907 8.75817 45.556 16.6655 48.7848 23.255C51.816 29.5809 54.2541 40.3877 52.6067 40.3877C52.2773 40.3877 50.8935 37.8178 49.5756 34.589C48.1918 31.426 45.7537 26.9451 44.1722 24.5729C40.0208 18.3788 29.0164 6.18825 27.1054 5.72699C23.3494 4.80446 19.7252 7.57206 20.5159 10.8009C20.7136 11.6575 23.4153 15.4794 26.5124 19.3013C30.7955 24.6388 33.1677 28.4607 36.9238 36.1045C39.6254 41.5079 41.7341 46.0547 41.6682 46.1865C41.5364 46.2523 39.1642 43.6165 36.2648 40.3877C32.1793 35.7092 29.3458 33.2052 23.2176 29.0538C14.5195 23.1891 11.8837 22.3325 9.70917 24.507C6.8098 27.4064 8.25948 29.7127 17.4848 36.7635C23.7448 41.442 26.8418 44.6709 31.3227 50.9968C35.8035 57.3886 32.5088 58.7065 19.0003 55.873C5.4919 53.1054 4.70116 53.1054 3.31737 55.214C2.26305 56.8614 2.26305 57.1909 3.11969 58.7065C4.30579 60.881 8.32538 62.4625 18.2096 64.5052C29.7412 66.9433 33.8267 69.3814 52.5408 84.8008C57.5489 89.0181 58.8667 89.7429 61.7002 90.1383C65.3903 90.6655 66.3129 91.6539 66.3129 95.2122C66.3129 96.3983 66.84 98.3093 67.499 99.4295C69.8053 103.713 76.6584 112.081 83.3796 119.132C87.2015 123.086 93.0662 129.28 96.295 132.904C102.094 139.23 106.377 142.525 108.881 142.525C109.803 142.525 111.055 144.436 113.889 150.3C115.932 154.518 118.436 160.185 119.358 162.82C122.258 170.728 129.638 184.368 141.367 203.741C148.616 215.668 151.581 220.017 155.271 223.971C157.709 226.541 158.566 228.056 159.159 230.758C159.554 232.603 159.884 234.448 159.884 234.778C159.884 235.173 159.884 236.754 159.884 236.754H161.399L160.938 232.735L160.477 228.715L162.453 229.176C164.167 229.506 164.826 229.308 166.407 227.727C168.845 225.289 169.768 222.06 170.229 215.141C170.69 208.354 169.834 202.687 166.144 188.322C162.783 175.011 162.256 172.375 163.112 171.914C163.903 171.387 164.694 173.759 167 183.775C168.12 188.585 170.427 196.097 172.074 200.578C175.83 210.792 183.672 226.607 186.703 230.165C190.393 234.448 193.49 233.394 193.49 227.859C193.49 220.215 181.629 184.895 174.249 170.662C171.613 165.588 167.857 161.107 162.849 157.153C160.674 155.44 160.411 154.979 161.201 154.386C161.729 154.056 162.849 153.727 163.574 153.727C164.364 153.727 165.748 153.134 166.671 152.409C167.659 151.618 169.307 151.091 170.69 151.091C172.008 151.091 174.578 150.366 176.357 149.444C178.202 148.521 182.09 147.335 185.055 146.742C191.908 145.424 194.544 144.106 198.3 139.889L201.331 136.528L201.727 139.032C201.925 140.416 202.847 143.843 203.77 146.61C205.746 152.475 205.681 154.386 203.374 155.506C200.936 156.758 191.25 156.56 184.199 155.111C171.349 152.541 168.45 152.673 168.45 155.967C168.45 159.328 176.16 164.138 185.055 166.247C191.381 167.762 198.3 167.894 209.766 166.774C216.949 166.049 218.069 166.115 220.111 167.038C222.154 168.026 226.306 172.573 225.713 173.1C223.604 174.945 214.313 178.108 210.952 178.108C206.801 178.108 198.827 175.868 193.49 173.166C187.494 170.135 185.319 170.201 185.055 173.495C184.858 175.67 185.319 176.329 191.645 182.786C202.122 193.461 212.402 202.094 223.538 209.54C229.666 213.757 239.88 218.963 241.791 218.963C243.9 218.963 246.206 216.195 246.206 213.691C246.206 212.703 244.031 207.431 241.396 202.094C238.694 196.69 234.938 188.717 233.027 184.368C231.116 180.019 229.271 176.065 228.875 175.604C226.701 172.902 234.938 173.1 239.089 175.802C240.473 176.724 241.593 177.713 241.593 178.042C241.593 178.372 240.539 179.689 239.221 181.007C237.178 183.05 236.915 183.643 237.112 186.147C237.244 188.388 237.574 189.047 238.628 189.178C240.341 189.442 242.779 186.872 243.834 183.709L244.69 181.271L247.062 184.17C250.291 188.058 252.927 193.923 256.354 204.664L259.187 213.625L256.156 215.536C252.927 217.645 251.016 219.556 249.171 222.389C248.117 224.103 248.117 224.234 249.171 224.696C249.896 224.959 251.543 224.432 253.52 223.378C255.233 222.389 257.672 221.599 258.924 221.599C261.493 221.599 260.966 220.281 263.47 233.262L264.129 236.754C268.478 236.754 265.513 235.436 265.513 235.436L264.459 230.494C263.8 227.727 263.339 224.827 263.339 224.037C263.339 223.246 262.877 221.862 262.284 221.006C261.362 219.688 260.835 219.556 258.462 219.885C257.013 220.149 254.772 220.94 253.52 221.664C252.334 222.389 251.214 222.851 251.082 222.719C250.753 222.389 256.288 217.25 258.989 215.339L260.835 214.021L258.199 205.454C253.718 190.76 251.939 187.136 246.535 181.403C244.954 179.755 242.713 177.383 241.461 175.999C238.826 173.232 234.872 171.914 230.259 172.309C227.689 172.573 227.03 172.441 226.767 171.453C226.569 170.86 225.054 169.08 223.34 167.499L220.309 164.731L212.006 165.324C199.618 166.181 189.866 165.983 185.055 164.731C179.652 163.282 174.315 160.712 171.811 158.405C167.791 154.649 169.702 153.859 179.059 155.638C189.998 157.746 196.258 158.339 200.343 157.681C207.591 156.494 208.25 155.242 205.351 146.874C202.979 139.823 202.649 133.958 204.56 133.958C206.933 133.958 209.305 129.478 209.305 125.128C209.305 122.69 208.316 121.438 206.405 121.438C205.153 121.438 205.022 121.043 204.956 116.892C204.824 108.194 200.277 98.2434 194.808 94.5533C193.622 93.7625 191.711 91.5221 190.722 89.6112C185.912 80.6495 179.718 79.3316 166.737 84.5372C156.589 88.5568 140.774 97.7162 137.282 101.604C134.119 105.096 133.262 108.128 133.789 114.058C134.316 120.318 135.964 124.206 138.665 125.326C140.445 126.051 141.367 125.985 146.177 124.535C157.314 121.241 177.082 112.345 184.067 107.535C187.428 105.162 189.932 102.065 190.525 99.3636C191.315 95.6735 191.579 95.2781 192.172 96.7278C192.502 97.4527 192.765 99.1659 192.765 100.55C192.831 102.527 192.37 103.581 190.261 105.821C185.714 110.698 169.768 119.132 154.612 124.535C151.185 125.722 147.693 127.105 146.902 127.501C143.739 129.082 145.782 132.97 152.174 137.649C155.403 140.087 156.589 140.548 159.093 140.548C161.795 140.548 162.388 140.218 164.957 137.583C167.791 134.551 170.229 130.334 171.679 125.919C172.865 122.229 173.458 122.031 178.664 123.481C184.001 124.931 191.315 125.128 194.347 123.811C196.916 122.756 200.079 119.198 200.079 117.485C200.079 115.244 201.266 115.442 202.056 117.88C203.177 121.175 202.32 130.861 200.607 134.156C197.444 140.416 192.106 144.106 184.396 145.292C182.09 145.622 178.334 146.808 176.094 147.862C171.415 150.103 168.713 150.3 168.186 148.587C167.593 146.808 161.399 141.009 160.608 141.47C159.027 142.459 159.949 144.831 163.244 147.928L166.605 151.091L164.826 151.75C163.903 152.079 162.519 152.409 161.86 152.409C160.674 152.409 158.566 153.99 158.566 154.913C158.566 155.177 161.201 157.812 164.43 160.778C169.57 165.522 170.624 166.972 173.26 172.309C178.795 183.511 184.726 199.524 189.207 215.141C191.777 224.037 192.502 228.122 191.843 230.099C190.854 233.328 188.482 231.022 183.474 221.928C176.357 208.881 170.69 193.857 167.461 179.426C165.616 171.255 164.167 168.553 162.256 170.201C160.477 171.584 161.136 175.538 165.748 192.737C168.713 203.873 169.57 211.648 168.582 218.04C167.593 224.432 166.144 227.134 163.442 227.397C162.256 227.529 161.004 227.134 160.147 226.277C158.104 224.432 155.996 215.8 155.271 206.377C154.941 201.896 154.151 196.559 153.624 194.582C152.503 190.364 152.372 185.949 153.294 182.721C157.775 167.697 156.589 149.839 151.12 149.773C149.933 149.707 149.209 148.785 147.429 144.831C145.255 140.021 139.654 132.97 126.277 118.144C123.51 115.047 120.478 111.356 119.556 109.841C118.633 108.391 116.129 105.755 114.087 103.91C106.641 97.5185 95.7679 86.7777 91.8801 81.9674C88.0582 77.2229 87.9923 77.0252 88.3218 74.06C88.5853 72.4126 89.0466 67.0751 89.3761 62.2648C89.9032 55.8071 90.4963 52.3806 91.6824 49.1517C93.7251 43.7483 93.791 41.442 91.8801 40.1241C88.0582 37.4224 83.182 40.0582 81.0074 45.9888C77.6468 55.4117 78.5693 66.548 83.3796 73.4669C85.5542 76.6299 85.8177 77.3547 85.027 78.0137C84.3022 78.6067 83.9068 78.6067 83.1161 77.9478C79.8213 75.2461 77.515 66.8774 77.515 57.6521C77.515 50.9968 76.856 48.8881 73.4295 44.8026C71.848 42.8917 69.7394 40.1241 68.751 38.5426C67.3672 36.434 66.5764 35.7751 65.7198 36.1045C64.9291 36.3681 64.4019 36.1045 64.1383 35.3138C62.7545 30.9647 57.2853 17.7199 54.1882 11.1963C51.3547 5.33163 50.0368 3.28889 48.7848 2.82763C46.4126 1.9051 46.0172 1.971 44.2381 3.81605ZM49.1143 5.00216C50.3663 6.58363 57.483 21.4759 58.735 25.2319C59.3939 27.2087 60.7777 30.8329 61.7661 33.2051L63.5453 37.6201L61.7002 40.7831C58.1419 47.0431 47.5987 55.6753 36.1989 61.8035C31.9816 64.0439 31.6522 65.7572 34.881 68.393C36.4625 69.645 35.7376 69.4473 31.9816 67.4046C28.6869 65.6913 25.1286 64.3734 21.7679 63.7145C8.65485 61.2764 3.91042 59.2336 4.50348 56.4001C4.83295 54.8187 6.7439 54.8846 16.8917 57.0591C27.5667 59.3654 31.5204 59.3654 33.6949 57.1909C34.6174 56.3343 35.3423 55.3458 35.3423 55.0164C35.3423 53.962 30.3343 46.7136 27.1054 43.1553C25.3921 41.2443 20.9113 37.2906 17.1553 34.3913C10.1045 28.922 8.98433 27.1428 11.2906 25.2319C12.6744 24.1117 14.0582 24.7706 21.9656 30.1081C28.4892 34.5889 32.1134 37.8837 38.7688 45.5275C41.4705 48.6246 43.2497 49.1517 43.2497 46.7795C43.2497 45.9888 41.8659 42.4963 40.1526 39.0039C38.3734 35.5115 36.4625 31.426 35.7376 29.9104C35.0787 28.3948 31.7181 23.5186 28.2915 19.1037C21.5044 10.4055 20.8454 8.36279 24.2719 7.17668C26.8418 6.25416 28.2915 7.50616 36.2648 17.0609C43.4473 25.6272 45.8196 29.3174 48.5213 36.1704C50.4322 40.9148 50.9594 41.7056 52.6067 41.7056C54.4518 41.7056 54.7154 40.19 53.8587 34.2595C53.3316 30.2399 52.2773 27.0769 49.5756 21.2782C45.2265 11.987 43.9086 7.63794 44.6335 5.5952C45.2265 3.94783 47.9282 3.61836 49.1143 5.00216ZM67.7626 39.8605C68.3556 41.0466 70.3325 43.7483 72.1775 45.857C74.6815 48.7563 75.5381 50.206 75.5381 51.7875C75.6699 61.7376 77.1196 71.4242 79.0965 75.1802C79.6236 76.1686 80.8097 77.6842 81.7323 78.6067C83.3137 79.9905 83.7091 80.1223 85.4224 79.4633C87.2674 78.7385 87.4651 78.8703 89.6397 81.7697C92.4731 85.5916 106.838 99.8908 111.78 103.779C113.757 105.36 116.393 108.128 117.579 109.907C118.765 111.752 122.389 116.167 125.552 119.791C144.069 140.68 145.255 142.195 147.693 149.114C148.418 151.223 148.352 152.277 147.298 156.758C145.584 164.072 145.584 173.693 147.364 176.592C148.945 179.228 149.604 179.294 151.12 176.988C152.701 174.616 152.767 161.041 151.185 155.572C150.065 151.552 150.658 149.905 152.306 152.145C155.007 155.77 155.205 169.212 152.635 179.03C150.988 185.62 150.988 190.364 152.635 197.349C153.36 200.38 153.953 204.861 153.953 207.431C153.953 211.714 155.139 218.831 156.325 221.928C157.314 224.498 154.876 221.73 150.79 215.8C139.852 199.721 123.576 170.332 119.951 160.316C119.029 157.615 116.788 152.541 115.009 149.048C113.23 145.556 111.78 142.525 111.78 142.327C111.78 142.129 112.505 140.811 113.428 139.428C115.405 136.594 115.47 133.102 113.559 132.772C112.307 132.509 110.462 136.067 110.462 138.835C110.462 140.877 108.881 141.47 106.575 140.284C103.741 138.769 79.0306 112.608 73.2977 104.965C68.8828 99.1 68.092 97.5185 67.6967 94.6192C67.1036 90.336 66.3129 89.4135 62.8204 88.8863C59.3939 88.2933 58.8009 87.9638 48.1918 79.3975C37.5168 70.7652 36.9238 70.2381 40.6139 72.2808C42.2612 73.2692 44.6335 73.9941 45.9514 73.9941C51.4865 73.9941 64.336 65.4936 70.7278 57.6521C74.2861 53.3031 74.4838 50.9309 71.5186 47.2408C69.0146 44.1437 65.6539 39.0039 65.6539 38.2791C65.6539 37.0271 66.7741 37.8837 67.7626 39.8605ZM67.3013 43.8142C72.6388 51.9852 72.6388 51.9193 71.5845 53.962C67.8943 60.881 51.6842 72.6762 45.7537 72.6762C44.0404 72.6762 34.0244 66.548 34.0244 65.4277C34.0244 65.1642 37.1214 63.1214 40.8774 60.9469C49.6415 55.8071 56.8899 49.9424 60.6459 44.9344C62.2933 42.694 63.6771 40.6513 63.6771 40.3218C63.6771 38.938 64.8632 40.0582 67.3013 43.8142ZM91.0234 41.2443C92.3413 42.2987 92.2754 43.2871 90.1009 49.0858C88.6512 53.0395 87.4651 62.0671 87.3992 69.052C87.3992 74.7848 86.6744 75.4438 84.2363 72.0831C81.7982 68.7225 80.8097 64.4393 80.8097 57.3227C80.8097 48.4269 83.0502 42.694 87.0697 41.0466C88.9807 40.2559 89.6396 40.2559 91.0234 41.2443ZM184.594 84.4714C185.714 85.1303 187.559 87.3048 188.746 89.2817L190.92 92.9718L189.47 97.3209C187.494 103.515 184.462 106.151 172.733 112.015C160.806 118.012 144.925 124.074 141.169 124.074C138.336 124.074 137.084 122.624 135.832 117.814C133.262 107.798 135.568 103.317 146.77 96.596C153.426 92.5105 166.209 86.1187 170.756 84.4714C175.303 82.8899 182.024 82.8899 184.594 84.4714ZM196.653 98.1775C200.145 102.658 203.374 110.5 203.374 114.519C203.374 115.706 203.242 115.706 202.056 114.19C201.397 113.267 200.475 111.225 200.079 109.643C198.696 104.108 194.808 100.681 194.808 104.899C194.808 106.019 195.796 108.259 197.114 110.236C199.223 113.399 199.355 113.926 198.762 116.101C197.905 119.462 196.323 121.438 193.754 122.493C190.854 123.679 185.451 123.679 180.97 122.427C175.039 120.779 172.667 120.516 172.008 121.504C171.679 122.031 170.624 124.47 169.636 126.908C166.407 134.815 162.519 139.23 158.697 139.23C155.93 139.23 146.046 130.993 146.968 129.478C147.166 129.082 148.813 128.291 150.527 127.632C171.349 119.989 188.284 111.356 192.172 106.48C194.017 104.108 194.94 100.352 194.215 97.848C193.358 95.0804 194.281 95.2122 196.653 98.1775ZM198.103 108.589C198.103 108.918 197.773 108.787 197.444 108.259C197.114 107.732 196.785 106.942 196.785 106.612C196.785 106.217 197.114 106.414 197.444 106.942C197.773 107.469 198.103 108.194 198.103 108.589ZM207.855 124.865C208.119 126.842 205.812 132.641 204.824 132.641C203.308 132.641 203.374 125.458 204.89 123.547C205.944 122.163 207.657 122.954 207.855 124.865ZM113.757 135.474C113.757 135.935 113.296 136.924 112.769 137.649C111.714 138.966 111.714 138.835 112.769 135.606C113.098 134.42 113.757 134.288 113.757 135.474ZM164.76 147.071C164.628 147.269 163.969 146.874 163.31 146.215C162.256 145.095 162.256 145.029 163.64 145.885C164.43 146.347 164.957 146.874 164.76 147.071ZM150.658 160.646C151.449 165.127 151.251 171.057 150.197 175.274C149.274 179.096 147.364 174.681 147.364 168.751C147.364 164.204 148.681 155.704 149.34 155.704C149.604 155.704 150.197 157.944 150.658 160.646ZM193.622 174.813C200.409 178.042 205.681 179.426 211.216 179.426C214.576 179.426 216.487 178.965 220.968 177.054C223.999 175.736 226.635 174.747 226.701 174.879C227.228 175.472 230.523 182.391 233.356 188.981C235.07 192.934 238.167 199.458 240.275 203.477C244.954 212.373 245.481 214.416 243.57 216.327C241.923 217.974 241.066 217.843 234.345 214.218C221.957 207.563 208.975 197.547 195.664 184.368C189.075 177.976 186.242 174.681 186.242 173.627C186.242 171.65 187.23 171.782 193.622 174.813ZM242.648 182.523C242.054 184.829 240.012 187.795 239.221 187.333C238.101 186.74 238.826 183.116 240.275 181.93C242.384 180.217 243.109 180.48 242.648 182.523Z"
        stroke="url(#paint0_linear_4_570)" stroke-width="4" />
    <defs>
        <linearGradient id="paint0_linear_4_570" x1="134.5" y1="2.24562" x2="134.5" y2="236.754"
            gradientUnits="userSpaceOnUse">
            <stop stop-color="white" />
            <stop offset="0.53" stop-color="#5F30B0" />
            <stop offset="1" stop-color="#18181B" />
        </linearGradient>
    </defs>
</svg>