<svg viewBox="0 0 17 16" fill="none" xmlns="http://www.w3.org/2000/svg">
    <g clip-path="url(#clip0_1_2356)">
        <path
            d="M1.95833 5.33335V4.00002C1.95833 3.6464 2.0988 3.30726 2.34885 3.05721C2.5989 2.80716 2.93804 2.66669 3.29166 2.66669H13.9583C14.3119 2.66669 14.6511 2.80716 14.9011 3.05721C15.1512 3.30726 15.2917 3.6464 15.2917 4.00002V12C15.2917 12.3536 15.1512 12.6928 14.9011 12.9428C14.6511 13.1929 14.3119 13.3334 13.9583 13.3334H9.95833M1.95833 8.00002C3.32325 8.14487 4.59724 8.75332 5.5678 9.72388C6.53837 10.6944 7.14682 11.9684 7.29166 13.3334M1.95833 10.6667C2.6201 10.7899 3.22905 11.1107 3.70503 11.5866C4.18102 12.0626 4.50174 12.6716 4.62499 13.3334M1.95833 13.3334H1.96499"
            stroke-width="1.5" stroke-linecap="round" stroke-linejoin="round" />
    </g>
    <defs>
        <clipPath id="clip0_1_2356">
            <rect width="16" height="16" fill="white" transform="translate(0.625)" />
        </clipPath>
    </defs>
</svg>