<svg viewBox="0 0 17 16" fill="none" xmlns="http://www.w3.org/2000/svg">
    <g clip-path="url(#clip0_1_1639)">
        <path
            d="M6.625 13.5V9.50003H9.625V13.5H13.625V7.50003C13.6251 7.43435 13.6122 7.3693 13.5871 7.3086C13.562 7.2479 13.5252 7.19275 13.4787 7.14628L8.47875 2.14628C8.43231 2.09979 8.37717 2.06291 8.31647 2.03775C8.25577 2.01259 8.19071 1.99963 8.125 1.99963C8.05929 1.99963 7.99423 2.01259 7.93353 2.03775C7.87283 2.06291 7.81769 2.09979 7.77125 2.14628L2.77125 7.14628C2.72483 7.19275 2.68803 7.2479 2.66293 7.3086C2.63784 7.3693 2.62495 7.43435 2.625 7.50003V13.5H6.625Z"
            stroke-width="1.5" stroke-linecap="round" stroke-linejoin="round" />
    </g>
    <defs>
        <clipPath id="clip0_1_1639">
            <rect width="16" height="16" fill="white" transform="translate(0.125)" />
        </clipPath>
    </defs>
</svg>