<svg viewBox="0 0 10 11" fill="none" xmlns="http://www.w3.org/2000/svg">
    <g clip-path="url(#clip0_4_987)">
        <mask id="mask0_4_987" style="mask-type:alpha" maskUnits="userSpaceOnUse" x="0" y="0"
            width="10" height="11">
            <path
                d="M9.67684 3.86267L6.67902 3.42698L5.33891 0.710171C5.30231 0.635786 5.2421 0.57557 5.16771 0.538968C4.98116 0.446872 4.75446 0.523619 4.66119 0.710171L3.32108 3.42698L0.32326 3.86267C0.24061 3.87447 0.165045 3.91344 0.10719 3.97247C0.0372468 4.04436 -0.00129513 4.14108 3.32322e-05 4.24137C0.00136159 4.34166 0.0424515 4.43732 0.114274 4.50733L2.28324 6.62198L1.77081 9.608C1.75879 9.67746 1.76648 9.7489 1.793 9.81421C1.81952 9.87953 1.8638 9.93611 1.92084 9.97753C1.97788 10.019 2.04538 10.0436 2.11569 10.0486C2.18601 10.0536 2.25632 10.0388 2.31866 10.0059L5.00005 8.59613L7.68144 10.0059C7.75465 10.0449 7.83966 10.0578 7.92113 10.0437C8.12657 10.0083 8.26471 9.81344 8.22929 9.608L7.71686 6.62198L9.88583 4.50733C9.94486 4.44948 9.98383 4.37391 9.99563 4.29126C10.0275 4.08464 9.88347 3.89336 9.67684 3.86267V3.86267Z"
                fill="#006FFD" />
        </mask>
        <g mask="url(#mask0_4_987)">
            <rect y="0.5" width="10" height="10" fill="#7C3AED" />
        </g>
    </g>
    <defs>
        <clipPath id="clip0_4_987">
            <rect width="10" height="10" fill="white" transform="translate(0 0.5)" />
        </clipPath>
    </defs>
</svg>