<svg viewBox="0 0 17 16" fill="none" xmlns="http://www.w3.org/2000/svg">
    <path
        d="M7.085 8.32864L2.965 9.20731C2.80508 9.24201 2.63793 9.21237 2.49969 9.12479C2.36146 9.03721 2.26326 8.89873 2.22633 8.73931L1.86833 7.30598C1.82624 7.13328 1.85015 6.95109 1.93536 6.7951C2.02057 6.63911 2.16095 6.52055 2.329 6.46264L11.3317 3.50264M9.415 7.83131L12.303 7.21531M11.0417 14L8.97167 9.85998M4.48033 5.75531L5.223 8.72598M5.70833 14L7.77833 9.85998M11.365 3.95998C11.2793 3.61696 11.3333 3.25396 11.5152 2.95079C11.6971 2.64762 11.992 2.42911 12.335 2.34331L13.0617 2.16198C13.2331 2.11922 13.4145 2.14624 13.566 2.23712C13.7175 2.32799 13.8267 2.47528 13.8697 2.64664L14.8797 6.68664C14.9226 6.85815 14.8957 7.0397 14.8048 7.19135C14.7139 7.343 14.5665 7.45234 14.395 7.49531L13.6683 7.67664C13.3253 7.76234 12.9623 7.7083 12.6591 7.5264C12.356 7.34449 12.1375 7.04963 12.0517 6.70664L11.365 3.95998ZM9.70833 8.66664C9.70833 9.40302 9.11138 9.99998 8.375 9.99998C7.63862 9.99998 7.04167 9.40302 7.04167 8.66664C7.04167 7.93026 7.63862 7.33331 8.375 7.33331C9.11138 7.33331 9.70833 7.93026 9.70833 8.66664Z"
        stroke-width="1.5" stroke-linecap="round" stroke-linejoin="round" />
</svg>