<svg viewBox="0 0 28 19" fill="none" xmlns="http://www.w3.org/2000/svg">
    <path fill-rule="evenodd" clip-rule="evenodd"
        d="M2.49808 11.855C2.94469 9.82424 4.04868 7.45945 5.7966 5.34591C5.33221 4.69084 4.8795 4.05793 4.43822 3.44664C2.24391 5.93625 0.839667 8.82137 0.278669 11.3723C-0.0102361 12.686 -0.0857562 13.9581 0.105249 15.0665C0.295256 16.1691 0.770805 17.2119 1.67709 17.8844C2.60785 18.575 3.79082 18.7266 5.0668 18.4339C6.32133 18.1462 7.73437 17.4199 9.30035 16.2516C10.6952 15.211 12.2605 13.7824 14 11.9036C15.7395 13.7824 17.3048 15.211 18.6996 16.2516C20.2656 17.4199 21.6787 18.1462 22.9332 18.4339C24.2092 18.7266 25.3922 18.575 26.3229 17.8844C27.2292 17.2119 27.7047 16.1691 27.8948 15.0665C28.0858 13.9581 28.0102 12.686 27.7213 11.3723C27.1614 8.82635 25.7616 5.94751 23.5746 3.46123C23.1336 4.07356 22.6813 4.70728 22.2174 5.36291C23.9572 7.47213 25.0565 9.82969 25.5019 11.855C25.7474 12.9711 25.784 13.9392 25.6555 14.6849C25.526 15.4363 25.2504 15.8613 24.9643 16.0736C24.7027 16.2677 24.2521 16.4178 23.4438 16.2324C22.6141 16.0421 21.4922 15.5105 20.063 14.4443C18.754 13.4677 17.2389 12.082 15.5148 10.2035C17.2899 8.13906 19.2285 5.63836 21.3342 2.64536L21.9854 1.71975L20.1239 0.424561L19.4727 1.35017C17.4778 4.18576 15.6543 6.54473 14 8.48756C12.3457 6.54473 10.5222 4.18576 8.52733 1.35017L7.87614 0.424561L6.01463 1.71975L6.66582 2.64536C8.77147 5.63836 10.7101 8.13906 12.4852 10.2035C10.7611 12.082 9.24605 13.4677 7.93702 14.4443C6.50784 15.5105 5.38592 16.0421 4.55619 16.2324C3.74791 16.4178 3.29732 16.2677 3.0357 16.0736C2.74961 15.8613 2.47397 15.4363 2.34448 14.6849C2.21598 13.9392 2.25264 12.9711 2.49808 11.855Z"
        fill="white" />
</svg>